<?xml version="1.0" encoding="UTF-8" standalone="no"?>
<svg
   xmlns:dc="http://purl.org/dc/elements/1.1/"
   xmlns:cc="http://creativecommons.org/ns#"
   xmlns:rdf="http://www.w3.org/1999/02/22-rdf-syntax-ns#"
   xmlns:svg="http://www.w3.org/2000/svg"
   xmlns="http://www.w3.org/2000/svg"
   xmlns:sodipodi="http://sodipodi.sourceforge.net/DTD/sodipodi-0.dtd"
   xmlns:inkscape="http://www.inkscape.org/namespaces/inkscape"
   style="fill-opacity:1; color-rendering:auto; color-interpolation:auto; stroke:black; text-rendering:auto; stroke-linecap:square; stroke-miterlimit:10; stroke-opacity:1; shape-rendering:auto; fill:black; stroke-dasharray:none; font-weight:normal; stroke-width:1; font-family:'Dialog'; font-style:normal; stroke-linejoin:miter; font-size:12; stroke-dashoffset:0; image-rendering:auto;"
   width="1024"
   height="640"
   id="svg2"
   version="1.1"
   inkscape:version="0.48.3.1 r9886"
   sodipodi:docname="H4-banner-140424.svg">
  <metadata
     id="metadata465">
    <rdf:RDF>
      <cc:Work
         rdf:about="">
        <dc:format>image/svg+xml</dc:format>
        <dc:type
           rdf:resource="http://purl.org/dc/dcmitype/StillImage" />
        <dc:title />
      </cc:Work>
    </rdf:RDF>
  </metadata>
  <sodipodi:namedview
     pagecolor="#ffffff"
     bordercolor="#666666"
     borderopacity="1"
     objecttolerance="10"
     gridtolerance="10"
     guidetolerance="10"
     inkscape:pageopacity="0"
     inkscape:pageshadow="2"
     inkscape:window-width="1280"
     inkscape:window-height="1002"
     id="namedview463"
     showgrid="false"
     inkscape:zoom="0.54638672"
     inkscape:cx="461.48108"
     inkscape:cy="372.76304"
     inkscape:window-x="0"
     inkscape:window-y="22"
     inkscape:window-maximized="0"
     inkscape:current-layer="layer2" />
  <!--Generated by Alchemy (http://al.chemy.org) with Batik SVG Generator-->
  <defs
     id="genericDefs" />
  <g
     inkscape:groupmode="layer"
     id="layer1"
     inkscape:label="2"
     style="display:inline">
    <g
       id="g7"
       style="font-size:12px;font-style:normal;font-weight:normal;fill:#7e7a46;fill-opacity:1;stroke:#7e7a46;stroke-width:1;stroke-linecap:square;stroke-linejoin:miter;stroke-miterlimit:10;stroke-opacity:1;stroke-dasharray:none;stroke-dashoffset:0;font-family:Dialog"
       transform="matrix(1.2794805,0,0,0.6775681,-169.7163,45.283642)"
       inkscape:export-filename="/tmp/41.png"
       inkscape:export-xdpi="90"
       inkscape:export-ydpi="90">
      <rect
         id="rect9"
         style="stroke:none"
         y="-1.3204186"
         height="754.9743"
         width="1006.5674"
         x="35.689003" />
    </g>
  </g>
  <g
     inkscape:groupmode="layer"
     id="layer2"
     inkscape:label="3"
     style="display:inline">
    <g
       id="g19"
       style="font-size:12px;font-style:normal;font-weight:normal;fill:#715e4b;fill-opacity:0.32939998;stroke:#715e4b;stroke-width:1;stroke-linecap:square;stroke-linejoin:miter;stroke-miterlimit:10;stroke-opacity:0.32939998;stroke-dasharray:none;stroke-dashoffset:0;font-family:Dialog"
       transform="matrix(1.6027759,0,0,1.630214,-308.48467,-65.264471)">
      <path
         inkscape:connector-curvature="0"
         id="path21"
         d="m -55.6388,390.5971 -88.152,-57.2858 111.9859,-131.7218 81.61,58.8477 66.8791,-45.8691 z"
         style="stroke:none" />
    </g>
    <g
       id="g23"
       style="font-size:12px;font-style:normal;font-weight:normal;fill:#384538;fill-opacity:0.97250001;stroke:#384538;stroke-width:1;stroke-linecap:square;stroke-linejoin:miter;stroke-miterlimit:10;stroke-opacity:0.97250001;stroke-dasharray:none;stroke-dashoffset:0;font-family:Dialog"
       transform="matrix(1.6027759,0,0,1.630214,-308.48467,-65.264471)">
      <path
         inkscape:connector-curvature="0"
         id="path25"
         d="m 67.7505,280.0552 -0.4123,-0.0618 q -0.5452,-0.2717 0.535,-0.32 l -1.0751,10e-4 -0.0288,1.0954 q -0.3272,0.2939 -1.2722,-0.0747 -3.6946,-7.3055 -6.5556,-10.1805 1.7535,1.282 6.0923,7.1497 6.9594,1.3842 8.6563,6.7793 -1.0256,0.6024 -1.1116,-0.1782 -0.7913,1.7788 -1.3982,-2.7281 1.4089,1.35 0.1721,-0.4753 -2.1671,-0.4578 -0.3882,-1.0735 -4.8143,0.2123 -9.5354,-0.5161 l -2.7297,-0.1782 2.647,-0.0428 q 8.537,0.3207 6.7394,0.7517 z"
         style="stroke:none" />
      <path
         inkscape:connector-curvature="0"
         id="path27"
         d="m 130.5571,291.0523 0.161,4.1727 -7.6538,-9.0398 5.4589,-3.3377 4.9953,7.0705 z"
         style="stroke:none" />
      <path
         inkscape:connector-curvature="0"
         id="path29"
         d="m 192.5447,276.9795 12.4859,3.0857 q 16.057,6.2489 18.5111,12.0742 -10.1457,-2.4 -17.3663,-6.3937 -1.7731,0.6077 -4.5753,-1.3639 -2.625,-2.325 -5.2708,-5.7218 l 0.0451,0.2116 q 1.8405,2.3736 3.2426,4.5133 -2.3069,-3.0171 -6.1295,-7.9804 -5.6138,-7.3603 -8.024,-5.6224 1.8466,2.5465 27.3161,12.0564 z"
         style="stroke:none" />
      <path
         inkscape:connector-curvature="0"
         id="path31"
         d="m 309.6279,271.6917 4.2564,19.3759 -24.3338,-0.5774 -2.3274,-8.5927 14.1406,-6.2459 z"
         style="stroke:none" />
      <path
         inkscape:connector-curvature="0"
         id="path33"
         d="m 357.6349,278.4277 4.8923,6.8994 -2.7907,-6.9454 -0.3605,-0.0948 -0.6808,-1.2665 z"
         style="stroke:none" />
      <path
         inkscape:connector-curvature="0"
         id="path35"
         d="m 377.49,279.1076 -3.1494,5.5699 5.6473,-7.3452 3.4964,1.5314 -0.474,-0.0641 z"
         style="stroke:none" />
      <path
         inkscape:connector-curvature="0"
         id="path37"
         d="m 433.5707,269.2032 16.5757,3.6008 -13.0444,21.9415 -12.0631,-15.2687 9.165,-9.2612 z"
         style="stroke:none" />
      <path
         inkscape:connector-curvature="0"
         id="path39"
         d="m 463.8591,276.6564 4.0301,1.9014 0.8432,1.0241 -2.7118,0.912 q 1.5211,0.028 -6.4264,4.0838 -2.489,0.3802 -1.92,0.5392 l -8.084,4.8997 3.732,-15.0921 15.8997,1.6467 0.01,5.105 q 1.6902,2.6675 2.7539,3.9845 -2.4406,-3.1261 -4.1749,-5.461 -6.0249,-7.5 -11.5363,-11.7133 0.7871,0.4756 9.2115,7.6588 l -6.2424,5.3554 z"
         style="stroke:none" />
      <path
         inkscape:connector-curvature="0"
         id="path41"
         d="m 504.7054,279.6979 -4.6434,2.1942 -9.152,-1.5687 -8.2246,1.7155 3.4738,5.9629 5.6585,-5.7136 -7.9519,-6.9196 8.7842,-2.5927 7.5947,5.2351 2.5438,0.7797 -0.4751,-0.4701 z"
         style="stroke:none" />
      <path
         inkscape:connector-curvature="0"
         id="path43"
         d="m 568.7852,279.1275 6.5413,-3.8334 -3.4097,7.6071 -2.6187,-17.2783 -1.5889,1.1344 1.5868,2.715 4.5294,6.307 -4.5019,-10.3102 3.0772,14.5361 2.0057,-4.7974 -0.8573,5.9213 -2.3745,-21.698 6.7002,-15.0751 3.3539,20.25 -5.0823,27.9077 -7.5442,13.8476 -5.1688,13.9429 -12.3899,-25.4287 -2.0421,1.3089 6.3285,-6.1033 16.397,-9.7319 0.849,-0.3117 1.3702,-0.9891 -5.2614,14.5773 5.7648,-0.9458 -4.7206,-9.4265 -1.0092,-0.01 -1.128,-0.44 8.9528,-5.3135 z"
         style="stroke:none" />
      <path
         inkscape:connector-curvature="0"
         id="path45"
         d="m 621.9882,277.7401 -6.4847,0.1497 q -5.0723,-6.4276 -2.2239,-8.1143 4.1947,1.037 10.6994,9.8941 -2.178,-3.014 -3.7915,-4.1417 6.6848,4.8627 7.4385,11.3404 0.796,2.6653 2.5537,7.6145 -2.2982,1.4442 -4.3992,-7.9114 l 1.436,-2.9237 -5.9029,-0.2706 0.964,-2.8325 -8.0557,-4.2194 z"
         style="stroke:none" />
      <path
         inkscape:connector-curvature="0"
         id="path47"
         d="m 664.2985,278.4219 -0.1869,1.501 c 4.8553,-1.6089 4.7559,-1.6994 4.6031,-1.6665 -0.168,0.0362 -0.2214,0.1595 -0.1753,0.3734 l -1.6806,0.0993 -4.9264,2.2886 -0.8527,0.0101 c 1.3037,-1.2961 1.1891,-1.3833 1.0363,-1.3504 -0.1527,0.0329 -0.2213,0.1596 -0.1753,0.3734 l -0.1648,5.2321 c 0.6977,-2.7575 0.8124,-2.6704 0.9651,-2.7032 0.1528,-0.0329 0.2214,-0.1596 0.1753,-0.3735 l -0.2684,0.094 0.2842,-1.8782 c 2.0217,0.7061 1.8118,1.4386 2.0059,2.3398 0.3125,1.4512 1.6186,2.3207 3.0239,2.018 1.39,-0.2993 2.2224,-1.6294 1.9099,-3.0805 -0.1908,-0.8859 -0.6399,-1.4126 -1.581,-1.8492 l -8.8648,-0.6946 z"
         style="stroke:none" />
      <path
         inkscape:connector-curvature="0"
         id="path49"
         d="m 725.5419,284.549 21.6425,-23.3063 -7.7108,13.1823 -11.7812,7.3284 -0.3665,0.3071 z"
         style="stroke:none" />
      <path
         inkscape:connector-curvature="0"
         id="path51"
         d="m 803.2775,276.1714 3.556,-3.6822 1.1206,4.9812 -2.4019,-0.2529 1.5242,-1.9399 0.2149,0.1813 -0.5131,-0.8481 0.3173,0.7179 0.099,0.3391 6.7138,8.1815 1.8277,-3.3885 -3.0058,-0.8504 1.091,3.3811 -5.7909,-4.2958 1.5793,-0.5071 5.8321,2.9386 7.9047,7.0665 15.1444,10.5042 2.1678,6.1591 -21.0113,-11.8339 -9.1876,-6.9659 0.2633,-3.625 -2.6902,-4.6168 0.5135,2.2569 9.7201,11.4541 1.4693,5.8692 4.6317,4.9461 -12.8899,-3.679 1.0283,-11.1135 z"
         style="stroke:none" />
      <path
         inkscape:connector-curvature="0"
         id="path53"
         d="m 856.5366,283.5781 33.6235,32.7596 -20.6975,23.6597 -9.6238,-3.0281 11.9838,-30.5326 -3.3836,-5.8226 -5.9776,8.9593 -8.8402,-1.4774 5.3447,-11.8515 2.474,-12.0004 -9.4195,7.905 -5.1012,1.7996 24.2699,-7.9479 z"
         style="stroke:none" />
      <path
         inkscape:connector-curvature="0"
         id="path55"
         d="m 894.8521,280.2596 -5.0476,-2.7634 7.7342,-0.8099 q 0.005,1.2177 2.8053,1.951 0.3272,4.9749 -0.437,8.5967 l -0.155,-0.738 q -0.131,0.3182 -0.6012,-3.4225 -1.0779,-6.1353 -2.9843,-10.9942 l -2.49,-0.2821 3.7134,2.4774 2.8423,6.6646 -1.1451,4.7571 12.6138,0.1682 z"
         style="stroke:none" />
      <path
         inkscape:connector-curvature="0"
         id="path57"
         d="m 922.3692,277.7881 c -1.9052,2.396 -1.1907,3.122 0.4688,3.5048 0.7917,0.1826 1.5237,0.2071 1.8996,0.0372 0.3911,-0.1663 0.6768,-0.5013 0.7752,-0.9276 0.2352,-1.0201 -0.5284,-1.7414 -2.2793,-2.1453 -1.492,-0.3441 -2.3095,-0.0677 -2.5237,0.8611 z"
         style="stroke:none" />
      <path
         inkscape:connector-curvature="0"
         id="path59"
         d="m 952.4948,286.5176 -14.5779,4.1255 0.4356,-5.1816 7.0943,-4.2355 2.9954,12.4881 z"
         style="stroke:none" />
      <path
         inkscape:connector-curvature="0"
         id="path61"
         d="m 1070.4432,230.1301 -103.7686,36.6729 -1.7792,-17.0525 -12.418,-26.2655 1.8703,0.1304 z"
         style="stroke:none" />
    </g>
    <g
       id="g63"
       style="font-size:12px;font-style:normal;font-weight:normal;fill:#252824;fill-opacity:0.54900004;stroke:#252824;stroke-width:1;stroke-linecap:square;stroke-linejoin:miter;stroke-miterlimit:10;stroke-opacity:0.54900004;stroke-dasharray:none;stroke-dashoffset:0;font-family:Dialog"
       transform="matrix(1.6027759,0,0,1.630214,-308.48467,-65.264471)">
      <path
         inkscape:connector-curvature="0"
         id="path65"
         d="m 952.3799,218.9005 -5.4205,9.257 13.5267,-4.1075 -10.6461,4.7067 q 4.4976,-4.175 11.5085,-5.3184 5.1438,-1.6776 10.2043,3.9236 l -6.2022,-0.3331 q -2.7776,-1.5026 -6.4868,-3.007 -0.1234,-0.5686 2.1938,-2.4328 1.0144,1.0645 0.7789,4.5911 0.2931,-1.9606 1.0864,1.4768 -0.8774,-0.9482 0.0178,-3.6472 -0.5538,4.718 -1.8405,1.084 -3.0028,-6.1867 -8.4595,-1.3467 7.3884,-4.3632 8.577,1.2335 l -9.7093,2.756 z"
         style="stroke:none" />
      <path
         inkscape:connector-curvature="0"
         id="path67"
         d="m 863.0397,237.8942 q 8.3054,6.4242 8.6827,2.972 1.1751,-9.7503 1.3283,-2.0429 0.1987,0.6181 0.6305,8.8179 -0.2116,0.6114 -0.6251,-5.0828 -1.4926,-7.1891 1.8929,-1.4171 -1.7554,-9.4784 -6.1099,-8.5274 -2.8251,-16.306 2.6088,-10.5808 2.7289,10.0198 -0.2791,15.8917 -1.6554,-3.7872 0.9659,4.3631 -4.8258,-0.8053 -4.4363,-10.5622 3.1911,13.8103 14.4357,8.8472 -9.19,2.141 -8.7205,0.3805 z"
         style="stroke:none" />
      <path
         inkscape:connector-curvature="0"
         id="path69"
         d="m 725.5742,248.9682 7.9251,0.4251 -0.7807,-7.7149 24.008,-18.6621 19.7163,17.1472 -12.7977,1.3969 -7.6439,-5.6832 -0.8083,-1.4448 4.0632,2.0334 -17.8154,7.9538 z"
         style="stroke:none" />
      <path
         inkscape:connector-curvature="0"
         id="path71"
         d="m 638.3301,237.2119 q 9.448,-0.5225 8.0364,-2.0615 l 2.4488,2.623 q -5.114,-6.1239 -2.6023,-3.3704 l -6.3924,-6.7495 8.4914,8.6268 q -0.3433,1.7047 0.1198,3.0778 0.9297,0.2571 1.7696,0.1348 -3.4051,-3.8101 -3.9341,-4.6309 3.2867,4.1756 4.2138,9.1299 3.2485,-3.6617 -0.846,-5.5724 0.9284,2.0137 1.8515,2.4911 -1.7466,-2.1474 -0.405,0.7642 -0.7194,-1.1263 -5.2424,2.5856 3.5508,-2.668 3.1364,-6.445 2.8323,1.608 0.0571,3.1365 l -8.628,-15.1405 q 8.1352,11.7391 6.378,10.4591 6.8751,6.7812 -1.3648,-2.1596 z"
         style="stroke:none" />
      <path
         inkscape:connector-curvature="0"
         id="path73"
         d="m 463.6199,228.3196 92.9098,16.0221 q -85.8117,-5.2142 -69.4396,-26.7801 -16.6582,22.298 46.747,66.7681 l -44.7385,-67.3442 q -1.1781,-0.0743 -1.5411,3.8936 16.0017,2.7443 -0.1437,-2.0366 l 2.5831,3.1392 42.2056,2.369 -18.3999,10.2995 11.2064,-6.6777 q -3.4305,2.3552 1.2318,-0.9349 -4.8693,4.0056 -9.7027,7.192 l -29.6931,-22.1126 60.4793,4.3876 -5.5812,-3.2527 q -2.877,8.7857 25.8574,0.2223 -67.1711,49.4857 -42.4158,14.7466 7.163,-1.4081 31.2783,-9.8582 l 56.2332,-22.7282 -47.2931,16.3243 -44.9296,14.8832 z"
         style="stroke:none" />
      <path
         inkscape:connector-curvature="0"
         id="path75"
         d="m 426.842,222.2745 12.0728,12.0516 -7.7103,-7.9065 1.7787,-4.8229 -2.2462,5.5585 z"
         style="stroke:none" />
      <path
         inkscape:connector-curvature="0"
         id="path77"
         d="m 349.9079,228.8847 q 4.0738,0.1973 3.9013,-2.9465 0.4783,0.8329 -0.316,3.4538 l 0.6397,3.5421 -0.1107,-0.9877 -0.979,-3.0358 -0.2787,-0.1162 q 0.3814,0.0975 -0.028,-0.0544 2.6199,1.8914 3.1044,2.9517 l -1.761,0.9297 0.8387,-1.6544 q -1.2249,-2.0704 -6.8568,-6.2833 1.3673,-0.0484 1.7173,1.6182 l -3.6145,-6.2767 7.612,9.1259 0.5738,2.1285 -3.5429,-5.9526 q -2.3082,-10.8684 1.1274,-14.917 3.376,10.117 3.4924,21.9848 1.073,5.9892 -0.1592,5.7482 -3.043,-2.4901 0.3546,-11.3875 l -1.6405,2.4114 -0.0499,2.1386 z"
         style="stroke:none" />
      <path
         inkscape:connector-curvature="0"
         id="path79"
         d="m 299.6561,232.5983 q 1.2133,-0.0283 -2.7827,0.9422 3.6739,-0.9491 3.605,-0.5252 1.6342,-1.1395 0.4077,-0.3021 -0.1649,0.2668 -1.0916,-4.1252 -1.4591,-5.7196 0.5695,-6.1602 -0.7694,-4.4563 1.5456,2.899 -0.2088,-2.8427 3.0479,7.6474 -6.451,6.9427 -8.5704,7.1029 l -0.707,-4.8419 q 5.4375,-3.5616 5.2641,-1.7036 0.0133,-4.2168 1.5696,-0.5609 -0.0284,8.2449 -2.0345,5.437 0.8055,-1.7969 -0.3341,-4.6062 0.6083,-1.3339 1.428,-2.9195 1.6516,-0.6613 4.2993,-1.1208 -4.7386,2.1944 0.6595,-3.0677 -1.2659,1.0594 -0.3039,0.3936 l -2.276,5.0516 z"
         style="stroke:none" />
      <path
         inkscape:connector-curvature="0"
         id="path81"
         d="m 268.247,232.6279 -1.8263,-4.3025 q -3.368,0.3052 -3.1595,0.5469 0.4717,9.2472 13.2792,0.1635 -9.3654,2.2952 1.533,-1.9646 l -10.6108,-3.7381 q 10.5407,2.9482 1.8769,27.1779 -1.2534,-8.9583 -1.838,-5.9137 l 10.6703,1.5197 q -10.4377,10.5364 -2.0498,9.7025 -11.426,-17.3633 -12.1968,-32.0889 l -3.1548,-5.4679 q 0.2589,-1.428 0.1371,-0.9087 -3.3435,-3.371 -2.8376,-5.2061 l 22.5333,16.7669 q -9.6,0.5797 -5.4861,-3.9083 -3.9156,4.6548 -12.2683,3.2943 -2.9722,5.9578 4.5453,2.0083 -2.7055,2.753 3.9412,-0.2918 l 9.1074,-4.1353 q -3.8191,1.7424 -13.3808,10.5187 7.062,-7.2268 -5.8973,-6.9667 2.4271,7.6345 12.4706,5.9627 z"
         style="stroke:none" />
      <path
         inkscape:connector-curvature="0"
         id="path83"
         d="m 199.9012,228.5878 2.3414,0.3773 -6.3429,3.1808 q -3.9426,-2.3942 3.0001,-2.2611 -5.6679,-1.0195 -9.4493,-0.551 l 6.3483,6.3251 -5.5894,-2.072 18.3562,-6.6237 q -4.4833,14.0697 -8.1082,6.8022 -7.2363,-6.271 1.5291,-5.2565 l 0.3323,8.6579 6.0282,-8.4819 q -11.4842,9.8862 -11.5261,-0.3611 l 5.6073,-0.3515 -8.8448,6.7206 -1.0035,-9.1794 q 21.8303,-2.2431 29.4558,0.6137 0.3442,6.5693 -16.3962,3.7889 l 4.4974,-0.8758 9.6756,-10.5896 q 2.5859,-0.611 -3.4658,4.3386 -12.3152,6.7024 -25.4839,8.8019 l 9.0825,3.0773 3.1968,-6.0731 -15.3114,11.1587 q -15.1127,1.9286 1.7209,-7.911 z"
         style="stroke:none" />
      <path
         inkscape:connector-curvature="0"
         id="path85"
         d="m 139.4552,234.5088 -10.6072,-5.456 3.3801,-8.7404 4.1938,-1.8056 0.0308,18.5938 0.225,-4.0262 -0.7374,1.1532 4.2439,1.5823 1.1127,-3.8402 z"
         style="stroke:none" />
      <path
         inkscape:connector-curvature="0"
         id="path87"
         d="m 92.1292,230.2068 1.7491,1.3428 q 1.3279,1.5349 1.6742,0.6912 -0.3258,-1.3956 -0.7656,-2.7068 -0.6808,0.2238 -0.0443,3.3899 l -4.6043,-0.2035 2.2886,-1.4418 0.9928,0.3893 q 3.2285,-2.3362 2.6633,1.0051 -1.029,0.3992 -1.5005,0.9035 z"
         style="stroke:none" />
      <path
         inkscape:connector-curvature="0"
         id="path89"
         d="m 35.416,233.2463 12.199,-2.5747 -6.2734,4.3735 -4.1204,-2.3825 0.2599,0.7788 z"
         style="stroke:none" />
      <path
         inkscape:connector-curvature="0"
         id="path91"
         d="m 7,232 0,0 0,0 0,0 0,0 z"
         style="stroke:none" />
      <path
         inkscape:connector-curvature="0"
         id="path93"
         d="m 30.7127,322.9755 21.0966,-4.4122 -47.9841,59.7042 -136.2309,143.628 4.9196,-74.8497 107.9122,-63.8436 59.4201,-25.1683 2.1827,8.1402 -10.0019,-0.1883 z"
         style="stroke:none" />
    </g>
    <g
       id="g95"
       style="font-size:12px;font-style:normal;font-weight:normal;fill:#426055;fill-opacity:0.49020003;stroke:#426055;stroke-width:1;stroke-linecap:square;stroke-linejoin:miter;stroke-miterlimit:10;stroke-opacity:0.49020003;stroke-dasharray:none;stroke-dashoffset:0;font-family:Dialog"
       transform="matrix(1.6027759,0,0,1.630214,-362.81605,-65.264471)">
      <path
         inkscape:connector-curvature="0"
         id="path97"
         d="m 56.894,340.1723 -7.5789,20.0952 1.2557,-0.7618 -9.2576,-6.1724 1.9888,-0.663 -2.3033,-5.0822 6.9214,3.9496 z"
         style="stroke:none" />
      <path
         inkscape:connector-curvature="0"
         id="path99"
         d="m 83.4329,348.3037 -22.9934,-11.6952 35.2228,17.787 -12.5197,1.4728 2.5946,-5.9652 z"
         style="stroke:none" />
      <path
         inkscape:connector-curvature="0"
         id="path101"
         d="m 188.7887,345.7818 q -17.0606,1.6745 -3.724,-0.7993 -12.1742,-1.149 -10.1994,-4.1373 0.7452,3.1087 5.7121,-1.8377 2.2961,5.0845 -4.0542,-7.1656 8.089,12.5722 12.4851,12.456 7.8194,1.4765 0.0251,2.1776 -0.8714,0.3972 18.41,-8.3578 l -8.6121,8.4414 z"
         style="stroke:none" />
      <path
         inkscape:connector-curvature="0"
         id="path103"
         d="m 263.855,324.4688 22.0426,-8.5409 22.8914,29.1692 -37.9807,-4.0635 1.0943,-33.4123 z"
         style="stroke:none" />
      <path
         inkscape:connector-curvature="0"
         id="path105"
         d="m 368.0805,340.6785 2.4526,9.874 -1.6531,11.682 -0.9015,-6.6131 -12.7718,-4.1942 5.1443,2.4938 -6.6124,-5.9828 5.211,-1.0458 -0.0762,6.3139 16.8597,-14.6047 -8.7129,6.356 3.9232,-1.2659 0.6285,0.9036 z"
         style="stroke:none" />
      <path
         inkscape:connector-curvature="0"
         id="path107"
         d="m 475.8411,358.2013 6.2313,-1.439 1.6073,-11.029 4.7426,8.5809 -0.6427,4.0848 z"
         style="stroke:none" />
      <path
         inkscape:connector-curvature="0"
         id="path109"
         d="m 617.1649,333.2989 q 5.9097,1.5919 1.0144,9.064 l -15.9619,2.3948 q 13.5202,-13.0018 1.8472,11.6804 l 2.0542,-21.7829 7.0783,12.3212 -8.439,-2.766 11.8344,-20.6444 -13.3891,47.3836 q 25.4674,-63.3881 22.1905,-26.9377 -22.498,11.4368 -6.4064,-8.1745 -10.6309,-2.0663 9.6985,13.6258 z"
         style="stroke:none" />
      <path
         inkscape:connector-curvature="0"
         id="path111"
         d="m 696.2153,369.2562 -12.8606,-5.1526 6.6192,-9.977 -10.018,11.145 c -3.0052,-3.4864 -3.9846,-2.4203 -4.9133,-1.5761 -2.1313,1.8944 -4.3699,2.267 -6.5735,1.0536 -1.0676,-0.5879 -1.3233,-1.1925 -0.8786,-2 l 27.6326,-15.7976 -1.6071,9.0303 c -15.5491,-12.2576 -15.1712,-12.2636 -12.5433,-10.8165 l 8.6932,4.9136 3.3748,3.3187 -7.7839,-5.2297 6.4473,4.6282 16.8463,8.5062 c -34.4212,-19.9055 -34.2243,-19.583 -34.9779,-18.2143 l 27.4736,19.4439 -30.1017,3.3584 c -7.5394,-4.3385 -8.187,-4.2314 -9.2546,-4.8193 -1.971,-1.0853 -2.9556,-3.0546 -2.6929,-5.4428 0.1705,-1.4758 0.6108,-3.0528 1.3682,-5.0437 l 14.6516,-11.4701 18.4095,28.2314 z"
         style="stroke:none" />
      <path
         inkscape:connector-curvature="0"
         id="path113"
         d="m 785.0079,344.8382 55.0044,-10.244 -45.7917,9.5332 -8.1584,-1.2504 -7.6218,-9.0163 14.4293,9.7334 2.3628,-2.8248 47.7017,-37.3059 -32.6245,28.587 2.8408,-4.536 8.95,3.8034 z"
         style="stroke:none" />
      <path
         inkscape:connector-curvature="0"
         id="path115"
         d="m 889.8071,332.8741 43.5714,23.6991 -37.3183,-17.5629 -18.5989,41.4001 16.8005,-42.4745 9.0248,5.7719 -3.4377,-0.3376 20.0536,-32.3374 -10.4429,33.1029 -9.6022,15.3933 15.6743,-32.1861 z"
         style="stroke:none" />
      <path
         inkscape:connector-curvature="0"
         id="path117"
         d="m 967.5477,343.1091 -6.0962,8.1124 1.6137,-0.3089 -0.2473,-3.5873 -0.7396,2.3221 0.45,-2.4768 0.1471,-2.1958 -6.1673,8.6785 z"
         style="stroke:none" />
      <path
         inkscape:connector-curvature="0"
         id="path119"
         d="m 1001.3488,351.6308 q -2.1599,1.3697 -9.2677,-0.3371 2.6483,-10.612 5.2395,-8.6083 -2.6918,2.4811 -4.0269,11.2491 4.4202,-8.5737 2.8245,-0.4506 4.3923,-1.4544 10.8535,-2.0573 -11.8904,4.0743 -11.7033,-8.2036 l -0.068,10.0858 q -3.9218,-2.5599 7.9607,-5.3904 0.7329,0.1314 -5.5313,-0.9086 -0.235,3.3681 -0.0534,5.8926 10.3995,0.3355 8.1669,-2.0231 -12.5603,-0.5623 -7.172,1.4886 8.8839,-14.2049 12.6058,-10.2925 -16.3169,10.9866 -20.9174,9.6931 14.2918,-6.4506 11.5889,-9.6332 -0.1306,7.1504 -13.9185,12.0691 -7.1139,2.1455 2.9004,-0.3837 l -17.446,-8.1465 25.6441,-2.6787 -0.4485,-1.3185 q -4.926,11.5415 -14.0056,16.7496 -5.321,7.8803 -6.6371,-1.2882 9.5519,6.4132 8.292,-2.6187 5.3751,-7.7977 2.3413,-5.3492 12.1415,-2.4993 20.0425,-3.9322 -1.9624,3.664 -8.6103,0.4432 -8.0692,9.7463 -6.0487,-4.9053 7.0305,13.0561 4.0615,2.248 l -0.7977,0.2207 q 5.6008,10.3837 11.6197,8.5324 0.3106,5.7965 -14.5535,3.8923 8.525,-0.3662 4.7068,-1.0922 2.2396,-7.4072 9.2202,-7.9762 -8.5504,4.8655 -16.9129,8.3713 11.4333,-1.4012 16.8174,-2.6149 -9.0976,0.0134 -2.4534,0.8124 -4.0734,-6.1465 -9.6161,5.1063 6.4577,-7.0308 -4.7481,-16.0437 2.8186,11.9529 11.5843,11.5979 l -7.5468,2.2457 12.7163,-3.5249 -15.3648,-9.9321 q 10.972,13.2019 7.0783,11.8071 -8.3396,-1.2319 3.3352,-5.0662 -14.2104,-11.0554 -1.7211,-1.139 -11.5159,7.6745 -8.5275,0.3662 z"
         style="stroke:none" />
      <path
         inkscape:connector-curvature="0"
         id="path121"
         d="m 1069.8134,339.6785 -86.9599,19.3795 q 31.9163,-8.3357 37.4238,-8.7593 25.3921,5.3473 24.9622,18.9952 2.1547,-19.0914 7.4316,-20.3704 l -37.7048,-46.5086 3.5274,29.4919 q 10.837,42.9498 1.0609,-13.002 -10.4236,-55.3522 1.4545,-68.8244 l 46.9463,103.5927 -29.5986,-2.8453 z"
         style="stroke:none" />
      <path
         inkscape:connector-curvature="0"
         id="path123"
         d="m 1030,353 0,0 0,0 0,0 0,0 0,0 0,0 z"
         style="stroke:none" />
      <path
         inkscape:connector-curvature="0"
         id="path125"
         d="m 921.2357,171.7493 q 34.1554,36.0727 20.5357,25.6683 -14.0511,8.6967 -15.2615,4.1812 -26.3056,29.8376 -0.9507,-6.6021 -21.9759,20.8826 12.3848,0.7145 -34.4847,14.9271 96.0859,-42.3184 l 2.4301,74.044 q -25.1789,-36.2538 -37.0723,-61.4419 -31.9197,17.9136 15.5767,-2.5105 -48.4111,19.9245 -109.7833,57.4513 3.339,-17.3161 30.8971,-36.1908 6.2212,7.9463 0.9791,8.0231 -24.0843,-20.9966 -37.444,-38.6521 l 7.2188,7.9623 q 14.7985,9.458 27.0724,23.4761 z"
         style="stroke:none" />
    </g>
    <g
       id="g127"
       style="font-size:12px;font-style:normal;font-weight:normal;fill:#1b2b29;fill-opacity:0.52939998;stroke:#1b2b29;stroke-width:1;stroke-linecap:square;stroke-linejoin:miter;stroke-miterlimit:10;stroke-opacity:0.52939998;stroke-dasharray:none;stroke-dashoffset:0;font-family:Dialog"
       transform="matrix(1.6027759,0,0,1.630214,-308.48467,-65.264471)">
      <path
         inkscape:connector-curvature="0"
         id="path129"
         d="m 949.9366,192.4698 -18.7998,-0.8877 1.3054,-3.0306 -6.0233,-6.6574 6.0698,-2.8426 z"
         style="stroke:none" />
      <path
         inkscape:connector-curvature="0"
         id="path131"
         d="m 780.5713,163.226 q 10.916,13.4009 13.3464,7.4452 9.4066,-4.3291 15.7155,2.871 l -10.992,-10.3388 q 1.9416,-0.0411 1.0154,9.0475 0.1361,3.8644 2.7581,-10.177 l 0.9485,-12.466 z"
         style="stroke:none" />
      <path
         inkscape:connector-curvature="0"
         id="path133"
         d="m 666.4084,179.7651 2.9424,-1.2016 2.0534,2.33 1.8636,0.4534 -0.9867,-1.9097 z"
         style="stroke:none" />
      <path
         inkscape:connector-curvature="0"
         id="path135"
         d="m 576.1572,178.5798 q 4.7835,1.625 -2.6441,0.2995 13.2996,-1.5992 19.5932,-0.632 -3.3006,0.1783 -12.8409,-2.0143 8.2581,6.0708 0.2672,6.3573 4.6385,-5.0182 2.6418,-3.9131 -0.702,-1.1344 2.9916,2.7737 l -1.7978,-3.8049 1.3574,-0.4918 -0.5002,0.5085 -2.4596,0.7107 q -1.5276,-0.5081 -1.6065,-0.7422 -10.0286,-13.817 4.3638,0.258 l -1.583,5.5109 1.2509,-5.8725 -0.2302,0.8338 -3.3468,-0.9944 q 1.6682,1.3201 -1.9814,0.2858 4.8019,3.387 -3.1732,1.4499 6.7584,-0.8118 18.0191,1.6818 -5.9149,-2.9373 -10.1119,-2.2847 3.9949,3.5516 -13.0233,4.663 9.6322,-4.2249 13.9914,-4.1699 7.9033,-2.8508 -3.5298,1.1013 4.719,-1.4888 2.1087,-1.4105 -0.0388,-0.1092 -7.0783,3.2905 z"
         style="stroke:none" />
      <path
         inkscape:connector-curvature="0"
         id="path137"
         d="m 472.7377,184.1615 4.5135,0.3338 -0.5781,-0.0634 q 1.3659,3.3449 2.0299,2.1149 0.0365,-1.3515 -0.4089,-0.1637 1.1502,-3.525 4.0349,-4.9002 -3.907,7.0301 -2.0356,0.7026 l -1.4232,0.9405 q -0.0546,0.8868 3.2669,-1.4831 -3.2236,5.2865 -2.509,6.2132 -0.3935,-0.3798 0.1161,-1.3288 -0.9394,-1.7966 -2.2659,-1.4639 -0.1349,-0.1686 1.5114,-0.3239 -0.9363,0.8441 -1.1659,1.0916 2.3377,-0.7321 -3.4305,-16.813 4.5533,9.3885 4.9176,13.7257 z"
         style="stroke:none" />
      <path
         inkscape:connector-curvature="0"
         id="path139"
         d="m 396.0381,196.6055 q 4.9986,-10.9616 9.0203,-0.8857 -1.6114,1.9414 -4.8702,4.9277 1.8557,-7.0343 4.0187,-15.3997 -1.4467,1.6286 0.579,9.9667 l -3.9312,-0.8571 2.9686,2.8771 -4.1721,-19.8536 8.3732,18.1023 -6.9091,-0.7441 5.288,-9.7976 -3.2537,5.7716 -0.4009,0.9642 0.2979,3.1138 q 1.9329,-8.3701 2.7458,-8.5538 -2.4655,4.2944 0.305,-0.4505 -0.8409,1.3035 -0.5565,0.5305 -0.3108,0.1747 -0.7482,1.1602 0.0806,2.0052 -0.1849,2.2656 -0.7682,-4.3622 -2.4733,-6.8623 0.4957,-0.2285 2.2623,4.0344 0.5925,1.7297 -0.297,1.6293 1.4785,0.6555 1.1154,5.253 -0.5256,0.0266 -2.9821,-8.928 1.4167,-0.3312 4.8705,6.2085 -0.8935,1.0206 -7.2143,7.0838 3.8485,-2.7058 2.0615,-11.865 1.9759,-5.0872 0.8092,8.3195 z"
         style="stroke:none" />
      <path
         inkscape:connector-curvature="0"
         id="path141"
         d="m 284.1262,185.4699 56.7978,50.2579 8.9307,-1.8492 35.7294,-61.2899 -36.4708,60.6209 z"
         style="stroke:none" />
      <path
         inkscape:connector-curvature="0"
         id="path143"
         d="m 282.742,176.3406 2.9997,9.1033 -1.6976,-3.5163 0.1442,-0.3394 -5.01,-7.6452 z"
         style="stroke:none" />
      <path
         inkscape:connector-curvature="0"
         id="path145"
         d="m 256.6735,179.9182 -9.5367,2.627 0.7798,-4.835 -9.5692,8.765 4.9275,-4.7949 z"
         style="stroke:none" />
      <path
         inkscape:connector-curvature="0"
         id="path147"
         d="m 228.9902,179.0782 5.6803,1.3803 -14.7007,-3.3541 q 3.7778,-5.1125 4.1762,-2.9008 3.4296,8.8627 9.8486,7.4917 -7.2565,5.3786 -11.0004,-7.0828 2.8638,0.3846 3.8062,-0.3779 0.1681,8.7025 -0.7128,8.1349 0.3417,-6.7825 0.4554,-7.6873 l -0.1717,1.3661 z"
         style="stroke:none" />
      <path
         inkscape:connector-curvature="0"
         id="path149"
         d="m 205.2572,177.0119 c -6.7879,-0.0364 -6.8971,-0.0415 -6.9596,-0.0443 -0.5463,-0.0253 -0.9125,0.1142 -1.2419,0.4744 -0.2315,0.2709 -0.3175,0.4389 -0.5159,1.0085 -0.091,0.2774 -0.4003,1.2172 -0.5319,1.696 -0.133,-2.5401 -0.1301,-2.6025 -0.1204,-3.1495 l 12.0255,-0.4118 c -12.6547,1.1648 -13.1569,1.8768 -14.3876,3.4623 l 13.5941,-4.6412 c -13.4817,4.2397 -13.4248,4.0233 -13.3167,3.7155 0.475,-1.4796 0.5682,-1.8038 0.5853,-1.8343 0.0696,-0.1532 0.108,-0.3079 0.1124,-0.4015 0.004,-0.0937 -0.0694,-0.1909 -0.1631,-0.1952 -0.0312,-0.001 -0.0787,0.012 -0.1256,0.01 -0.0787,0.012 -0.4874,0.0557 -0.6606,0.079 l 13.7088,0.4923 c -14.0699,-0.4621 -14.1175,-0.4486 -14.2118,-0.4374 l 17.7178,0.2816 c -17.7563,-0.1269 -17.647,-0.1219 -17.6158,-0.1204 0.1256,-0.01 0.2349,-0.005 0.2973,-0.002 0.2185,0.0101 0.3391,0.1095 0.3304,0.2968 -0.008,0.1717 -0.0101,0.2185 -0.2313,0.9434 -0.3528,1.2038 -0.3883,1.296 -0.5348,1.7585 -0.3257,0.9547 -0.3605,1.0313 -0.5478,1.0227 -0.0624,-0.003 -0.1561,-0.007 -0.249,-0.0272 -0.0149,-0.0163 -0.0922,-0.0355 -0.1851,-0.0555 l 15.3359,0.4939 c -15.5122,-0.064 -15.4342,-0.0604 -15.3561,-0.0568 0.1873,0.009 0.3299,-0.0317 0.6025,-0.1755 0.4003,-0.2005 0.4656,-0.2601 0.7319,-0.6075 l -0.7569,-4.5542 13.9913,-3.9388 1.3078,4.71 c -12.4679,2.2208 -12.352,3.7747 -12.2814,4.2784 l -2.0009,-9.1779 c 2.4912,9.0598 2.6161,9.0656 2.7878,9.0735 0.4682,0.0217 0.755,-0.0902 1.0979,-0.4029 0.3926,-0.3729 0.6469,-0.7991 0.6635,-1.1581 0.009,-0.2029 -0.0288,-0.3924 -0.1421,-0.6478 l 7.3424,-3.2013 c -7.7353,3.9183 -7.6964,4.0921 -7.7058,4.295 -0.0209,0.4527 -0.3602,0.6873 -0.9689,0.6591 -0.1717,-0.008 -0.281,-0.0129 -0.5129,-0.0706 0.3698,-1.2342 0.805,-2.528 0.9399,-2.7408 0.152,-0.2432 0.3281,-0.3289 0.6246,-0.3152 0.1249,0.006 0.1249,0.006 0.5136,0.055 l -5.399,-0.7344 z"
         style="stroke:none" />
      <path
         inkscape:connector-curvature="0"
         id="path151"
         d="m 188.5762,174.0057 q 2.2433,2.0324 -2.5044,4.2045 -3.7233,-1.7908 1.5982,-0.5719 -1.5858,0.2155 -3.0724,0.2021 2.1666,0.0778 3.8666,-0.9542 l -0.4242,0.6694 -0.6903,0.1682 1.3054,-1.7636 1.1082,-2.8909 -3.0803,5.7801 -2.4846,1.561 q 0.2748,-1.9083 5.8184,-8.5789 0.4544,1.451 1.675,2.051 -1.1211,1.6735 -2.0927,1.3609 z"
         style="stroke:none" />
      <path
         inkscape:connector-curvature="0"
         id="path153"
         d="m 176.0016,171.612 -1.501,6.2621 c -2.2999,-2.4697 -2.2999,-2.4697 -2.258,-2.3859 0.014,0.028 0.0908,0.1818 0.2164,0.4683 l -5.0335,-10.7665 8.5583,4.5593 c -3.5246,5.7181 -3.4826,5.6622 -3.1751,5.5086 l -2.2479,4.3276 c 4.3028,-5.3538 4.5057,-5.7869 4.1427,-6.5138 -0.1327,-0.2656 -0.3282,-0.4823 -0.5867,-0.6502 l -8.3918,6.3668 1.0774,-0.0425 6.3873,-0.4296 2.6935,-1.8353 c -1.9132,-3.9337 -1.8364,-3.8847 -1.6967,-3.6051 0.2932,0.5871 0.1952,0.9504 -0.371,1.2506 l -0.4785,4.4291 c -0.5201,-5.7642 -0.9952,-5.9811 -1.5403,-5.7088 -0.4893,0.2443 -0.6223,0.6775 -0.3709,1.1807 0.0558,0.1118 0.1186,0.2027 0.1745,0.2446 l 0.9845,3.915 z"
         style="stroke:none" />
      <path
         inkscape:connector-curvature="0"
         id="path155"
         d="m 166.8246,170.9172 q -11.4399,-2.9925 -10.0427,0.7462 -3.2123,-4.5705 9.9208,-5.5832 1.6943,7.3784 -7.3055,-1.3173 7.5008,2.4867 -4.4152,7.5019 l 0.2779,-3.1031 q -3.6373,-2.2624 4.2649,3.3953 -4.4443,-3.7024 -5.3102,-4.249 7.2791,6.2532 1.8435,1.0223 -1.7171,-0.9197 8.3945,6.2648 l -5.9134,-5.2091 -1.8989,-0.5255 q -0.7406,-0.5046 -2.6125,-1.4848 1.9173,0.967 3.5076,2.1982 -2.5359,-1.7993 -1.2387,-0.8897 0.6347,0.4993 1.1255,0.8262 l -0.9807,-1.3342 q -0.1801,-1.1252 0.4468,-1.659 l 0.1644,-0.3694 -2.1074,5.8014 1.7717,-6.2283 q 0.0791,3.2619 -3.3912,5.3509 6.491,-8.5471 3.9736,0.3041 -1.7179,-2.7136 -1.2641,-2.5064 -1.2461,1.5111 -0.0167,-2.1327 l 0.9865,1.8295 0.7117,-5.2695 0.994,3.4343 -0.5438,1.8436 -1.1006,3.7756 q -2.6389,-4.0046 -3.5814,-2.9515 0.2928,0.8065 7.0677,-5.1945 l 8.0074,0.2318 -1.347,5.2522 -10.8841,-0.6004 z"
         style="stroke:none" />
      <path
         inkscape:connector-curvature="0"
         id="path157"
         d="m 149.499,159.525 -19.8656,1.9444 q 9.5216,6.431 -2.8638,7.4847 0.7126,-7.8154 9.0375,-4.849 l -0.3609,0.5429 12.1651,21.4732 -2.4214,-5.752 q 1.8497,-2.8823 -3.7807,-7.3221 0.3076,0.7396 -0.2761,-5.2044 l -17.3791,6.7539 -17.1481,-7.5067 q -4.2528,-14.571 33.5153,-2.1717 33.3248,8.3249 38.4413,5.034 -9.5279,2.8883 -46.6626,4.8934 -42.0371,-5.2874 -31.4573,-4.8761 10.8423,-17.9613 -13.6634,1.8224 l 38.8248,-5.79 62.3227,-26.4065 q -113.5561,51.121 -76.1741,29.6232 -35.5001,14.8152 15.1758,-7.9808 z"
         style="stroke:none" />
      <path
         inkscape:connector-curvature="0"
         id="path159"
         d="m 77.9171,157.9276 6.0475,6.6909 8.2507,-2.2193 -9.7907,-10.1154 16.3663,3.9481 -10.3809,-4.8905 -4.8921,-1.0313 -0.4373,0.9989 z"
         style="stroke:none" />
      <path
         inkscape:connector-curvature="0"
         id="path161"
         d="m 73.9895,156.8772 q -2.8359,5.3829 -4.0186,5.9108 0.9045,-0.2918 -0.2217,0.123 -0.1176,0.0194 -0.4971,0.0488 1.7152,-0.633 -7.2083,-7.8611 8.057,7.7857 -0.1846,2.9997 3.6562,-7.0754 5.4119,4.7561 -3.3035,-10.6059 2.1298,0.1976 -7.4517,-4.7578 -6.6962,-9.703 2.1338,-2.3397 1.9059,-1.8517 l 3.1826,-1.2852 q -4.56,2.3195 -3.9535,1.1605 0.8743,-0.1457 9.4374,8.4867 -1.6839,2.3448 -2.4712,2.52 -3.5052,0.6823 -8.5292,-3.3659 8.9827,3.556 5.1307,4.0598 -4.0824,-10.7105 5.7053,-2.8303 -3.5778,2.9086 -10.3059,-6.8668 8.7784,8.4553 9.5042,8.4623 -6.6959,0.6819 -0.6831,0.3159 0.7095,-0.2341 -1.9698,0.7934 -6.4351,-10.9854 -5.0804,-12.0244 2.0575,-0.5056 0.5851,0.3017 3.7643,-0.7228 -1.52,0.7487 l 8.1673,-0.2768 q -0.2503,10.2312 -5.8871,11.2726 5.8379,-11.2207 4.4006,-0.4468 3.3406,-3.5618 2.3668,-9.6154 l 0.9394,6.2825 q -0.6966,1.2342 -8.3973,3.5388 8.0918,-9.0533 7.7368,-9.8118 -0.5206,-1.008 -7.9717,9.8731 7.2785,-10.3615 8.5763,-8.7565 -7.0837,8.9053 0.284,0.9972 0.0471,0.2503 -6.205,7.9177 2.282,-0.3112 3.172,-0.5153 z"
         style="stroke:none" />
      <path
         inkscape:connector-curvature="0"
         id="path163"
         d="m 60.0302,159.03 0.7447,-13.9036 14.4697,11.4908 3.4023,7.8312 -7.4723,-4.5968 0.6602,-9.9386 -7.2948,-0.5555 -19.9629,14.082 z"
         style="stroke:none" />
      <path
         inkscape:connector-curvature="0"
         id="path165"
         d="m 50.6486,157.6844 -13.612,-1.7054 -0.2161,-2.8056 q 1.7896,-0.6375 5.7147,11.8423 -0.5996,-0.9317 -6.9931,-7.689 l 4.1182,-7.216 -2.4279,9.3086 q 0.0268,-1.9947 1.4115,-6.7916 -0.7703,1.1805 -2.171,5.8214 l 0.8033,-2.512 q 0.3767,-1.0072 0.2248,-1.9149 0.0338,1.0106 -1.0031,1.4055 l 0.6895,5.5959 q 0.8818,-8.2552 -0.2312,-5.6766 2.1835,8.4918 2.0677,-4.0905 l -1.3502,4.8789 q -0.3676,3.5195 0.2695,-2.9267 0.0867,-0.2885 0.2951,-0.1516 -0.5439,2.1408 -1.1282,1.6116 -0.5585,0.6127 2.0589,-2.2944 12.1636,4.1139 10.5346,10.8083 -12.4276,-5.6102 -11.2255,-11.706 z"
         style="stroke:none" />
      <path
         inkscape:connector-curvature="0"
         id="path167"
         d="m 39.2123,157.8454 -4.0231,7.3482 -4.8447,-1.238 q 5.9317,-0.8578 3.4636,0.4402 -3.694,-0.6755 5.3114,-4.78 l -2.1675,-7.1784 -0.3348,12.1892 -7.6381,-0.9592 1.8857,0.0482 -0.1886,-0.3826 q 4.4673,0.8574 6.0181,-0.4591 -2.3074,2.012 -3.6712,2.0808 l -2.3148,-1.2554 1.4068,0.1557 2.2381,0.5796 -5.8135,-5.4792 3.415,4.7522 q 2.0588,0.8726 -0.4163,-0.1122 4.9468,-0.8201 1.9869,0.6452 -4.2279,-2.7043 6.1889,-5.2207 l -6.8981,-7.3468 z"
         style="stroke:none" />
      <path
         inkscape:connector-curvature="0"
         id="path169"
         d="m 18.0337,164.0458 -3.1128,-2.2098 4.3427,0.7981 -1.0363,-0.312 -2.4356,-1.7572 z"
         style="stroke:none" />
      <path
         inkscape:connector-curvature="0"
         id="path171"
         d="m 14.8773,165.0934 -7.133,-5.962 6.4082,11.1399 -3.4662,0.9153 -3.2219,-11.961 -3.7675,3.3662 12.0821,4.5356 -4.557,4.7677 -0.0911,1.7539 -6.1765,-4.4716 8.237,0.1798 -0.2243,0.4229 -4.2578,1.651 5.1733,-0.9773 -4.1851,1.6815 0.6449,-0.9926 z"
         style="stroke:none" />
      <path
         inkscape:connector-curvature="0"
         id="path173"
         d="m 9.1297,166.8097 q -8.0744,0.3121 2.7134,-2.0882 -4.0608,10.8855 -13.3105,0.6867 -6.1589,1.0965 11.3799,8.8729 -8.2258,-12.5416 1.4613,-1.8511 -4.8332,-8.2913 -9.07,-9.643 5.3192,9.8506 -1.3198,0.933 9.0345,7.9499 7.6011,6.6672 -7.5427,0.2294 -6.1136,-1.5017 l 7.7639,-4.5457 -17.8948,3.7893 q 16.289,-6.8167 11.982,-2.7477 l 14.2079,-1.4815 -9.8198,3.0008 7.0763,-7.7473 q -17.9711,2.5841 -7.0029,6.717 -2.1487,5.9475 -6.7023,-3.05 l 9.5468,14.7385 -12.7397,-2.2312 q -5.2476,-2.6305 3.5501,1.6491 -2.8899,-0.4792 -5.1684,-13.0381 l 5.9301,6.9909 10.0546,-2.0755 -12.8628,-2.5804 q -0.3919,17.3517 4.1689,3.4319 l -0.067,10.7438 z"
         style="stroke:none" />
      <path
         inkscape:connector-curvature="0"
         id="path175"
         d="m 115.7624,252.399 q -15.4986,-16.0849 -60.7267,-48.0768 -3.998,15.0294 -7.4135,19.3528 0.0514,-24.1566 8.844,-68.8985 9.5738,70.6031 -16.8947,49.7297 10.3054,-46.5516 14.7993,31.971 Q 79.549,250.6811 17.938,188.6361 159.6973,252.9702 68.3582,205.5376 12.1915,191.2504 20.3153,157.5018 -48.9549,120.6316 3.4116,139.0196 z"
         style="stroke:none" />
    </g>
    <g
       id="g177"
       style="font-size:12px;font-style:normal;font-weight:normal;fill:#4b4127;fill-opacity:0.04709999;stroke:#4b4127;stroke-width:1;stroke-linecap:square;stroke-linejoin:miter;stroke-miterlimit:10;stroke-opacity:0.04709999;stroke-dasharray:none;stroke-dashoffset:0;font-family:Dialog"
       transform="matrix(1.6027759,0,0,1.630214,-308.48467,-65.264471)">
      <path
         inkscape:connector-curvature="0"
         id="path179"
         d="m 71.8289,191.212 q -14.3587,4.5528 -9.8661,8.4208 0.2279,0.8761 11.095,-11.1777 -18.1308,3.446 -24.1678,7.1753 18.1741,3.0331 7.1572,2.0481 -2.5711,-1.8213 4.0516,2.7498 -2.0948,-1.3947 -6.287,-9.849 l 4.2751,8.9863 q -5.3884,-10.8184 -0.6278,-0.4002 -4.4043,-15.0432 0.4474,1.5706 -6.1923,-8.0658 -3.4639,-4.3269 -1.1399,-5.8732 -4.6144,0.359 l 2.5592,-0.7171 1.7778,-6.2357 8.6276,18.0374 -10.6662,-23.6159 q 21.4246,11.2543 1.079,14.973 6.7174,-16.4387 3.2096,-9.8642 12.1773,-7.9637 -6.4674,4.7082 8.4481,-10.1847 23.2941,-5.4731 -26.9552,13.5988 -6.2466,-4.9698 -15.8768,18.0883 -3.314,-3.3273 2.6745,1.0068 -7.2088,9.5749 -1.9736,7.4635 2.0599,19.9206 l -14.3454,-17.4563 6.9889,2.3718 6.3645,-0.4137 z"
         style="stroke:none" />
      <path
         inkscape:connector-curvature="0"
         id="path181"
         d="m 75.6282,192.2065 5.5936,0.9115 22.6909,-2.1207 -16.1278,10.0807 -6.6188,-14.1263 z"
         style="stroke:none" />
      <path
         inkscape:connector-curvature="0"
         id="path183"
         d="m 157.3195,195.1536 q 12.9836,-5.3413 7.2036,-2.4678 -0.706,1.4551 -4.1381,2.4959 7.1637,-5.5349 6.1524,-4.4789 -2.5797,2.8743 -1.4582,2.3383 -2.4772,1.8195 -3.5762,2.3748 7.2142,-5.4459 7.2205,-4.8632 -3.607,2.7455 -1.9356,1.9231 l -0.2354,0.5307 q -0.4713,0.0662 0.0643,-0.7449 -2.5902,1.4293 -2.6553,2.5011 -3.8812,3.2753 -3.7828,0.7001 9.2471,-10.0879 11.4991,-10.1195 -7.6705,6.8268 -2.4858,3.0708 z"
         style="stroke:none" />
      <path
         inkscape:connector-curvature="0"
         id="path185"
         d="m 221.0036,193.0094 5.3205,15.7093 -3.8482,10.6519 -0.5456,-26.3438 0.3865,0.7915 z"
         style="stroke:none" />
      <path
         inkscape:connector-curvature="0"
         id="path187"
         d="m 275.9059,184.7048 -1.0614,-5.4939 0.1473,22.7338 -6.0696,-12.575 -0.7685,-8.8139 z"
         style="stroke:none" />
      <path
         inkscape:connector-curvature="0"
         id="path189"
         d="m 324.9456,198.7932 q 0.6163,-7.9762 3.4444,-1.2245 -8.0468,-4.7474 -1.649,-7.8184 -9.5542,-1.8696 -6.8382,-0.4305 1.5189,7.4543 24.4097,11.7073 -17.6078,-2.9293 -24.8083,-3.2232 -0.6849,-6.1848 17.5813,-5.9319 -8.8205,6.8137 -10.2198,4.2852 -0.8155,2.1728 0.009,-2.9085 z"
         style="stroke:none" />
      <path
         inkscape:connector-curvature="0"
         id="path191"
         d="m 409.8318,197.5258 -16.8197,-3.4546 9.1814,-0.1931 1.356,13.7031 -2.5526,-5.0121 -0.141,-6.4784 -0.005,4.3826 7.5182,-9.1993 -1.3102,1.8265 z"
         style="stroke:none" />
      <path
         inkscape:connector-curvature="0"
         id="path193"
         d="m 479.2671,209.5867 -0.2806,-16.4175 q -2.0199,-1.3822 3.6838,16.3971 -10.3685,-26.2904 -13.9662,-30.1608 -7.135,10.5847 -9.2979,1.3175 4.6369,2.5981 4.6314,2.193 13.7226,8.2717 7.346,9.4927 4.6092,3.6003 -0.6057,-2.9323 l -1.0865,-7.0253 q 1.9022,5.6278 3.7869,25.1256 2.6714,-22.1836 4.7835,-18.2454 -3.734,8.271 -3.1901,4.1947 5.4113,-10.3184 -4.9664,10.3349 2.7501,-4.9411 5.3076,-10.2467 -0.8849,1.7196 -1.1458,1.7926 l 1.4093,2.3008 q -2.7907,-5.2395 -1.1423,-6.0437 -1.3033,2.2664 1.067,6.6716 -4.2451,8.3402 -4.5672,-4.1154 4.8336,-4.4503 2.7076,-2.08 -2.6353,-10.4632 0.8219,-13.5419 2.7101,-0.0954 6.8385,21.6413 l -5.0861,-2.417 q -0.2482,1.5081 -4.7632,-8.2955 -1.6162,3.4847 -3.8478,0.1154 12.4165,11.3079 2.0708,2.7751 -5.8259,-10.2305 12.9098,12.7911 -23.825,-28.553 -12.6891,-26.8342 11.6734,23.4563 10.561,32.9529 z"
         style="stroke:none" />
      <path
         inkscape:connector-curvature="0"
         id="path195"
         d="m 597.5635,185.2658 5.3285,29.0767 9.1798,-23.8477 6.2726,-2.9987 -10.0584,1.3818 5.5297,-2.8999 q -4.9422,6.669 -10.2113,9.6981 3.9291,-2.286 0.1252,-2.2072 1.7407,-0.8976 3.8624,5.5864 -0.1977,-1.7397 2.3928,13.5043 -5.006,-18.2929 -2.5116,-25.0933 l -1.2629,-4.6815 4.5091,19.2146 z"
         style="stroke:none" />
      <path
         inkscape:connector-curvature="0"
         id="path197"
         d="m 660.536,195.6877 -2.9758,1.5811 -1.1062,0.5764 q 3.3349,-13.2419 18.7743,-3.7339 l -15.2173,-0.9904 -0.8917,-11.471 -0.3215,18.9638 q 3.6378,15.8157 -8.5714,-11.5224 l 16.0599,9.3471 -10.1463,-6.6905 q 1.4453,19.9398 3.5512,-5.7134 l -1.1731,11.9326 -3.0931,-14.1127 -1.4812,15.6594 q -1.0759,-6.2915 -2.1846,7.9318 l -4.5769,-5.0239 6.1022,-0.4613 q 0.4279,-0.6365 -0.8909,-1.0887 l 0.5726,-0.7191 -3.5714,0.2469 4.1846,-2.9045 q -1.2609,2.0109 -2.8105,2.4326 l -0.66,-0.6323 13.4831,-1.0761 q -7.8139,0.3615 -15.6494,-0.249 l 4.6437,-0.2225 2.3377,4.0269 -14.6768,0.1617 q -0.043,-6.2011 17.1746,-2.0072 z"
         style="stroke:none" />
      <path
         inkscape:connector-curvature="0"
         id="path199"
         d="m 702.1486,207.3674 q 7.26,0.0338 6.926,0.2455 1.2668,-2.4184 -4.1978,2.201 16.8284,-14.4724 9.2479,-9.0354 11.1126,-7.7303 -2.496,11.1177 5.538,-13.8635 0.2556,-9.4565 3.9254,-9.8924 -2.6922,5.4235 2.3993,-11.2345 5.9154,7.9675 -5.9666,-15.3524 -2.8828,-16.6391 z"
         style="stroke:none" />
      <path
         inkscape:connector-curvature="0"
         id="path201"
         d="m 778.7353,217.9576 q 12.6509,-10.6355 7.6268,-23.036 2.5594,8.7807 -2.6548,13.6637 -4.5467,-2.9244 5.0605,-8.514 l -6.4959,5.4929 q -15.4652,-13.2726 1.7358,-17.2854 -4.0508,9.016 -4.8115,13.2137 10.2007,7.9182 3.9933,7.081 l 7.1363,-4.9722 q 2.6008,-4.8151 7.8585,5.2354 -19.2082,-1.1065 -18.4798,-25.4549 11.8561,27.0318 13.4561,32.0884 -5.1129,-2.8366 -17.9837,-21.6505 l 8.587,9.1393 2.1701,-1.941 -6.2047,0.6346 q 3.7529,-1.0859 5.7546,-0.4769 10.4514,10.0361 -1.2886,3.836 -18.7507,-12.0012 -10.0235,-8.7216 2.3855,2.0474 15.0235,8.4856 0.7152,3.2973 -6.5641,-1.4604 7.9301,0.905 5.3881,4.8277 l -2.7633,-4.5728 q -3.4101,6.4916 -0.585,1.6331 0.3088,0.9295 -0.0859,-2.3159 2.2061,2.2316 -0.7216,0.5192 l -1.4015,-1.0245 q 2.0129,1.6261 2.1934,2.2386 1.4875,0.157 1.1785,0.3708 -1.6259,-0.824 -0.3472,-3.1318 0.5211,-0.3235 0.989,-0.9227 l 0.5845,-0.9175 0.6831,3.1475 -0.5515,-4.018 q -6.0427,11.4668 -4.6502,9.2077 -3.6526,8.1765 -0.8458,3.7642 -1.567,4.8833 -1.1536,3.9031 z"
         style="stroke:none" />
      <path
         inkscape:connector-curvature="0"
         id="path203"
         d="m 816.1428,225.0004 8.7688,-21.3351 -12.6086,18.4948 9.9718,-6.6209 -70.3859,-7.4901 42.5559,-2.0641 -9.3808,-10.056 16.7376,-1.1466 3.7829,15.6629 -11.5956,-10.7756 z"
         style="stroke:none" />
      <path
         inkscape:connector-curvature="0"
         id="path205"
         d="m 816.325,201.4967 -9.3844,4.5396 2.9663,1.9876 1.7168,0.3144 -4.7285,-2.2743 2.9558,1.843 -0.1348,0.0302 -0.1689,0.928 z"
         style="stroke:none" />
      <path
         inkscape:connector-curvature="0"
         id="path207"
         d="m 871.08,203.8922 8.103,2.1124 -5.4158,-5.6396 2.6282,3.3219 0.1609,-11.3903 z"
         style="stroke:none" />
      <path
         inkscape:connector-curvature="0"
         id="path209"
         d="m 964.3351,205.7943 3.3689,-1.2475 -4.6183,-9.4944 2.7611,9.15 -0.1774,2.0141 z"
         style="stroke:none" />
      <path
         inkscape:connector-curvature="0"
         id="path211"
         d="m 985.7991,204.841 0.4147,-1.8967 q -8.9462,2.7777 -9.1107,2.8734 -0.2977,-0.2468 -0.0693,0.6552 0.0847,-0.2245 0.0365,-0.216 l 0.3902,-4.4055 q 1.1005,7.0943 0.6118,6.7661 0.2279,-0.3031 -0.105,-7.5951 l 0.8248,-0.3752 -1.2543,2.0424 0.7891,-2.1446 -0.614,2.8232 0.6637,4.3702 -1.4704,-1.5222 q -0.3626,0.1578 -0.2272,0.7495 0.0163,-0.977 1.3904,0.1674 -2.2532,-0.6326 -0.3202,-4.5796 l 5.5322,-2.6015 -0.5699,0.1136 q -4.8244,2.1327 -4.3024,9.8816 -0.7343,-1.4333 -1.5257,-3.2973 l 1.5533,3.0038 -1.7773,-3.0065 1.497,3.3099 2.5854,-10.5872 1.7448,1.2185 q 3.4312,3.1284 -5.6408,5.7745 -0.6543,-0.3405 -0.5567,-0.6597 l 10.6856,-2.0021 -9.8097,1.657 9.5033,-1.4859 -9.5904,1.9081 z"
         style="stroke:none" />
      <path
         inkscape:connector-curvature="0"
         id="path213"
         d="m 991.9894,209.2541 q 3.5901,-2.9243 4.8036,-3.3018 -2.5132,6.28 -0.7876,3.5693 0.0585,-2.4958 0.8813,-1.5396 0.369,-1.803 -2.9898,-1.5237 l 4.6765,-6.0318 q -1.3936,6.5731 -4.1977,10.055 2.2716,-8.7488 4.2975,-11.1612 -2.0876,7.3927 -2.6443,9.6828 -0.0448,0.5043 0.3149,-0.4102 z"
         style="stroke:none" />
      <path
         inkscape:connector-curvature="0"
         id="path215"
         d="m 1010.4488,204.5269 -3.003,-5.7067 -2.444,-1.8101 7.4558,1.012 -1.2246,0.7497 1.7603,12.6016 -17.4626,-9.481 11.0414,-3.6792 z"
         style="stroke:none" />
      <path
         inkscape:connector-curvature="0"
         id="path217"
         d="m 882.7994,247.9839 57.8633,67.9587 q -62.9207,-13.4281 -75.7599,-80.6493 48.1972,34.4413 15.5854,44.5075 l -10.2264,-19.2073 q 6.6312,11.4664 18.125,35.9694 -12.6458,-44.9504 -24.178,-46.761 l 12.9152,5.1957 q 47.4458,-3.2586 63.1761,-11.1365 -40.8691,16.2946 -75.3686,12.9883 l 41.5318,-6.0484 40.5502,5.6165 -39.5106,24.389 q -93.0107,-9.7463 -69.0119,-17.3909 47.9819,-16.5381 55.3978,17.4614 10.988,-14.8337 15.8822,-12.0474 l -15.8568,17.8971 24.4863,1.2478 q -34.3852,-16.3827 -47.6602,8.6491 -11.0917,-47.995 7.6324,-31.1005 l -7.6665,-3.5787 3.9311,28.4029 z"
         style="stroke:none" />
    </g>
    <g
       id="g219"
       style="font-size:12px;font-style:normal;font-weight:normal;fill:#232424;fill-opacity:0.62749999;stroke:#232424;stroke-width:1;stroke-linecap:square;stroke-linejoin:miter;stroke-miterlimit:10;stroke-opacity:0.62749999;stroke-dasharray:none;stroke-dashoffset:0;font-family:Dialog"
       transform="matrix(1.6027759,0,0,1.630214,-308.48467,-65.264471)">
      <path
         inkscape:connector-curvature="0"
         id="path221"
         d="m 876.1238,266.2097 q -12.3359,-2.4345 -15.3782,-6.7877 4.3569,1.3682 2.934,6.2786 0.6059,0.0262 -1.1935,-0.4123 -1.9115,-3.063 1.2243,-8.2802 9.9565,16.311 3.6727,17.3484 -3.4061,-2.072 -4.5201,-17.1911 -0.5181,-0.5344 2.163,2.7137 l -1.9764,6.4765 q 0.5748,-5.5279 2.9055,6.5358 -1.4177,-7.7812 4.2724,1.5781 0.7826,3.1518 -8.758,-10.4796 16.2767,3.5493 10.4087,13.6008 4.1297,0.1862 8.3118,-5.5492 z"
         style="stroke:none" />
      <path
         inkscape:connector-curvature="0"
         id="path223"
         d="m 720.0059,259.698 31.258,-0.0982 -4.6254,2.0898 25.961,-11.7841 -1.7835,33.8004 -26.7042,-50.3027 17.8902,15.7783 4.9994,31.1223 -22.3981,-45.4133 34.9598,6.1715 -28.3958,16.2401 z"
         style="stroke:none" />
      <path
         inkscape:connector-curvature="0"
         id="path225"
         d="m 660.6772,267.1282 q -1.0657,-1.0911 -2.7381,-5.3916 -0.1659,-3.7612 2.8255,5.5029 0.5127,3.7475 0.8439,-3.5055 l -4.9404,7.7167 q 3.097,-8.4902 4.7288,-10.3772 0.6398,-1.8808 -2.8505,6.1539 l -1.1165,-0.0416 q -0.6064,1.4192 2.3277,-3.0195 3.1786,-4.4489 1.3424,-2.3101 -1.5059,1.9326 0.2854,-1.7678 -2.6009,4.81 -3.2236,6.0964 1.1663,-1.6687 0.7032,-0.7251 0.1673,-0.7957 -1.4978,-1.5881 1.6515,0.4177 0.5512,0.2364 -0.6749,-0.7809 0.6816,-0.2778 1.3883,2.9864 -1.3662,-0.7918 2.045,2.0414 -1.3668,0.1293 2.2264,-0.5163 6.9582,4.8811 -5.7743,-3.3896 -4.6605,-5.1468 0.2401,1.1807 2.2854,3.3698 -2.7993,-1.1984 0.7127,-5.5201 -1.3348,3.0285 -2.8991,4.3356 -2.7348,-7.9722 1.7894,-8.8664 -0.739,6.6452 -0.0121,4.6763 l -1.9428,1.03 q -1.2226,-0.0279 -0.5458,0.5994 2.7031,5.7285 -0.3358,1.894 -1.8155,-5.8317 1.4281,-1.9815 -4.6155,-1.1823 -0.2328,-1.1025 l 1.8415,4.5949 z"
         style="stroke:none" />
      <path
         inkscape:connector-curvature="0"
         id="path227"
         d="m 642.7319,278.8507 q -2.2659,4.6297 -4.22,-12.6007 -7.7678,-9.0825 21.1561,-8.3942 -22.4555,24.157 -29.2384,-11.7437 3.9084,16.7364 -27.3531,12.5961 13.8985,-0.6976 36.3393,7.7941 5.9633,2.1943 4.9186,3.025 -6.4646,2.0105 -9.1943,-2.1905 3.5105,-2.9316 2.1115,-0.1279 z"
         style="stroke:none" />
      <path
         inkscape:connector-curvature="0"
         id="path229"
         d="m 571.7921,265.2187 q 5.4403,2.4884 4.1535,-1.8798 -0.8763,0.3434 0.7277,7.2707 -0.8843,-6.5186 -1.1151,-5.8996 1.8958,6.1447 0.9693,3.6216 -0.6573,-4.3712 -1.2281,-4.5571 0.6302,0.8938 -1.8734,-3.6437 0.3216,7.4168 3.3878,4.7714 -3.2691,3.0663 -1.6501,-3.1696 5.0421,14.9216 1.0188,5.6241 -1.1361,-0.9198 -1.735,-2.3322 -2.8863,-1.5096 1.2791,0.1067 -0.273,-0.1764 3.8098,3.7044 6.6907,0.3618 2.1183,-0.8166 -4.6266,-0.1854 -4.7624,-3.5521 0.6656,1.3684 0.489,2.3004 -0.0211,-0.3856 0.4169,0.4552 z"
         style="stroke:none" />
      <path
         inkscape:connector-curvature="0"
         id="path231"
         d="m 499.4356,248.3453 12.0534,14.6794 -3.0348,1.6323 -2.0472,-6.9755 1.7511,7.9337 z"
         style="stroke:none" />
      <path
         inkscape:connector-curvature="0"
         id="path233"
         d="m 417.8474,270.8858 q 5.3371,1.5793 21.0277,-1.1717 -14.2334,2.5697 -12.8787,1.0298 -5.9619,-1.6488 -1.1273,-3.7175 7.7229,7.3707 -0.8339,4.02 -5.7344,-6.5512 -0.698,-0.9964 -0.6567,-4.1174 2.7836,1.667 3.027,0.6966 5.1025,0.3488 l -6.0593,-0.0377 z"
         style="stroke:none" />
      <path
         inkscape:connector-curvature="0"
         id="path235"
         d="m 336.6484,294.4641 q 1.3831,-8.3378 -3.6531,-18.2091 l 9.5226,19.1553 2.5869,-2.3643 -2.0105,0.9688 -11.5336,-9.4993 q 7.4177,-4.4729 2.9813,-0.3939 3.8839,-3.887 4.5636,-4.6543 l -0.2927,0.6367 -1.9278,2.0485 -0.1668,0.1626 q 1.3328,-1.3994 0.5542,-0.3583 -0.5714,1.3315 -1.3333,2.074 l 6.9348,10.8617 q -0.6418,-1.0491 -0.5611,-1.3424 z"
         style="stroke:none" />
      <path
         inkscape:connector-curvature="0"
         id="path237"
         d="m 224.5948,289.0003 4.8924,-0.359 4.0361,-2.3915 -2.3973,-0.2304 1.4985,3.0768 -0.838,0.0849 1.608,-5.6786 0.7461,0.9195 3.2541,4.9588 0.8899,-14.1128 -1.7724,8.562 -2.9665,3.5612 -3.1847,-0.6942 4.461,-9.7288 9.156,9.816 2.5513,0.8274 -10.1873,0.6335 z"
         style="stroke:none" />
      <path
         inkscape:connector-curvature="0"
         id="path239"
         d="m 145.5346,278.1043 23.7459,6.9907 -23.404,0.6093 -0.1641,0.3862 9.79,-4.6176 z"
         style="stroke:none" />
      <path
         inkscape:connector-curvature="0"
         id="path241"
         d="m 78.3633,271.6204 -1.6837,3.6852 q 1.6444,-0.9048 1.2731,-0.5966 l 0.4838,-0.2845 -0.1506,0.872 -1.2345,1.1721 q -1.8926,-2.8244 -3.6014,-0.7654 l -4.1652,2.5354 1.9423,-7.3871 q 2.2927,1.3943 8.7839,5.499 -0.8454,0.3872 -2.7528,-1.2657 l -3.3766,-1.8648 -0.89,-1.6193 -0.5422,-0.1385 q 2.4456,1.656 2.9823,1.8888 l 3.6518,0.5361 0.5691,1.3015 q -1.7863,0.6883 -9.5497,1.7645 l -8.4971,-0.7526 1.0331,0.7442 7.6884,-0.2088 q 11.2302,-4.4661 7.0794,-2.7033 l 1.1157,0.158 -0.1756,-0.1957 q -3.8844,3.3235 0.0471,0.1411 l -6.2947,4.4036 2.9278,-2.2644 -2.1386,1.493 q -2.9352,0.9714 1.836,-1.4909 z"
         style="stroke:none" />
      <path
         inkscape:connector-curvature="0"
         id="path243"
         d="m 40.0523,266.4118 -4.5782,10.1041 -7.8341,-6.6374 11.7716,-8.4391 -3.1481,12.6374 -5.0859,1.0998 0.0341,-0.0843 1.9513,-0.0439 1.5768,2.7497 -1.6973,-2.6499 0.0158,-0.1247 2.0666,2.3528 -7.8217,-9.0362 1.1058,1.6199 z"
         style="stroke:none" />
      <path
         inkscape:connector-curvature="0"
         id="path245"
         d="m 32.1722,268.3847 -6.5014,-0.6834 4.6462,-2.39 0.5901,-0.681 1.4522,2.1844 -6.9411,0.5834 2.6151,-2.3913 2.6115,-0.4781 0.881,1.1325 -5.8464,2.5391 0.753,2.4216 1.9967,-5.8032 1.379,-0.6081 -3.3024,2.0264 3.7203,-2.4229 1.5929,0.707 z"
         style="stroke:none" />
      <path
         inkscape:connector-curvature="0"
         id="path247"
         d="m 302.1837,197.9535 99.6905,37.2276 -34.7953,17.3877 -24.4304,22.1251 q 15.755,-5.7565 -6.8554,-16.7201 -9.882,14.0752 211.4965,-94.2893 L 433.3182,294.3844 q -51.1952,-82.3308 -62.2872,-51.9627 26.1426,-9.488 27.754,-11.845 6.3874,12.7608 0.2479,5.5162 19.4401,20.3439 25.858,19.4339 -40.8817,-27.2952 -54.4874,-25.7907 -12.7158,-4.0704 4.7443,-2.8936 -6.3976,34.4483 -18.0267,34.0639 79.7256,-75.4328 139.7608,72.3524 L 327.7968,226.7541 z"
         style="stroke:none" />
    </g>
    <g
       id="g249"
       style="font-size:12px;font-style:normal;font-weight:normal;fill:#211d1a;fill-opacity:0.12550001;stroke:#211d1a;stroke-width:1;stroke-linecap:square;stroke-linejoin:miter;stroke-miterlimit:10;stroke-opacity:0.12550001;stroke-dasharray:none;stroke-dashoffset:0;font-family:Dialog"
       transform="matrix(1.6027759,0,0,1.630214,-308.48467,-65.264471)">
      <path
         inkscape:connector-curvature="0"
         id="path251"
         d="m 399.5173,243.3633 -14.5367,-8.4301 -4.583,-0.0541 c 19.8795,5.8971 19.6953,6.0754 19.1852,6.0003 l -6.3902,-8.7251 c 1.0879,7.9451 1.0001,7.7901 1.032,7.0367 l -0.9235,-4.908 -3.0772,15.383 5.7512,1.6359 1.265,3.019 c -2.6948,-9.3656 -2.9458,-9.5921 -3.1717,-9.9885 -0.3028,-0.5184 -0.3778,-1.0822 -0.2663,-1.8396 0.0932,-0.6339 0.2441,-0.8012 0.677,-0.7375 l 3.9285,-3.9878 c -1.6916,5.4224 -2.1372,5.7675 -3.3148,5.7206 l -0.9193,10.3031 -4.3679,-16.867 0.8081,-2.795 c 6.7279,9.5318 6.4292,9.093 6.5861,8.0263 l -20.595,-12.094 c 23.2693,12.4875 23.3416,12.6402 23.2666,13.1504 -0.2365,1.6077 -0.6494,2.0523 -1.9998,2.1064 l -10.6528,-26.6955 -2.4638,4.691 z"
         style="stroke:none" />
      <path
         inkscape:connector-curvature="0"
         id="path253"
         d="m 412.8926,238.9375 2.3199,2.9698 -17.2096,2.9467 2.945,-20.8913 10.4912,9.9225 -5.4447,13.3708 7.1126,-9.9654 2.3848,3.8545 z"
         style="stroke:none" />
      <path
         inkscape:connector-curvature="0"
         id="path255"
         d="m 426.5012,239.9327 q -10.5742,-3.1298 -11.3937,-1.7086 0.6643,-1.952 0.1332,-0.8408 0.7453,-1.2241 0.9617,-1.3084 -1.0512,1.186 0.0194,-0.5642 0.6606,-0.5007 1.6584,-0.9285 -2.9688,3.5915 -3.5123,3.977 0.464,-0.2794 4.1353,-5.2249 -1.2842,1.3923 -3.4509,3.7385 5.6245,-4.2081 2.1051,-1.8729 -1.0049,1.2343 -1.057,1.0591 9.1581,-3.8234 -1.2452,5.48 3.8261,-8.3446 0.1879,-1.8662 -1.7653,-1.8734 7.225,-6.3896 l -8.0571,6.6925 q 0.7924,-3.6178 3.0226,-5.8192 l -2.7079,2.7377 -0.8048,2.0189 q 0.7071,-0.104 1.6029,-2.144 -0.0195,-1.1688 0.4001,1.5246 -0.3548,-2.0006 5.9227,-4.851 -4.0808,1.5262 -4.0825,1.7084 l -3.3731,2.7769 1.2025,-1.7939 q 0.9572,-0.6647 2.4047,-2.038 -1.2052,1.6915 -1.5798,1.5722 1.034,-0.7789 -1.2269,2.1234 -0.1552,-1.2971 -0.1582,-1.0268 -1.2187,-1.1548 4.9331,-2.2518 -3.2457,1.5571 -3.1591,1.7975 -2.571,-1.138 -1.1489,-0.1696 z"
         style="stroke:none" />
      <path
         inkscape:connector-curvature="0"
         id="path257"
         d="m 430.3712,238.5749 8.1707,-4.7674 -0.1511,2.2803 -1.3563,-0.9711 0.7614,3.2062 -0.921,-3.8614 -0.5432,-0.1836 -0.2543,3.0351 2.7451,2.2362 -1.6273,-3.3075 z"
         style="stroke:none" />
      <path
         inkscape:connector-curvature="0"
         id="path259"
         d="m 465.7629,238.1009 -5.2154,6.5098 -5.4631,0.9851 3.3531,-11.4711 -2.6939,10.9716 -1.1302,-5.8764 1.0999,2.7044 0.6747,1.8528 -1.2534,-3.5193 0.1025,-0.0333 0.6213,-1.6762 10.9179,-2.0789 -10.635,3.4608 z"
         style="stroke:none" />
      <path
         inkscape:connector-curvature="0"
         id="path261"
         d="m 486.086,243.0131 q -9.8574,-7.1551 -13.6824,-2.6466 20.1642,-7.8934 20.8756,-1.8752 -7.6309,0.7841 -13.5855,-0.5767 15.3344,-6.2258 10.0292,-1.5411 0.0596,0.3227 2.1696,3.2458 1.6642,1.7575 -2.1768,0.4227 1.6918,0.4761 -2.5073,-2.7199 -9.7707,-4.6372 -1.3159,-0.5874 z"
         style="stroke:none" />
      <path
         inkscape:connector-curvature="0"
         id="path263"
         d="m 543.5236,232.4999 -21.9366,19.8019 -8.6334,-18.4862 18.5351,4.0222 10.9641,-3.806 z"
         style="stroke:none" />
      <path
         inkscape:connector-curvature="0"
         id="path265"
         d="m 570.0615,238.0838 -4.0959,6.5836 2.7719,-4.2454 2.9354,-2.0593 -1.2087,-1.6196 z"
         style="stroke:none" />
      <path
         inkscape:connector-curvature="0"
         id="path267"
         d="m 701.8871,237.9676 19.2273,2.2187 -13.5824,-8.6152 q -11.8733,-3.2551 0.2194,-3.7917 -1.9072,9.9566 25.2566,2.2646 22.7013,11.667 -16.5,0.342 -14.5718,-4.3923 25.7754,-0.903 -1.7504,10.0204 11.394,9.5963 -29.4262,2.6015 -53.6249,-0.8683 z"
         style="stroke:none" />
      <path
         inkscape:connector-curvature="0"
         id="path269"
         d="m 752.8593,238.4382 -11.5994,-6.882 4.3801,-2.1409 1.7611,16.1785 q -0.1016,-1.8522 -0.9902,1.5378 -0.1495,-14.1764 15.7174,-4.2261 -7.9879,-8.4821 -13.5523,0.7256 -19.5628,-12.3539 -0.2805,5.0647 -12.0654,3.2743 1.4188,-7.5186 -6.5392,3.7903 -2.4727,7.3298 1.8713,-7.8587 -0.0626,0.4274 1.836,1.1163 -11.1355,-3.1389 -2.0361,-15.9029 -0.2251,-16.3312 14.9868,15.9528 10.1481,12.2977 3.6001,16.6445 0.5778,3.4316 7.6562,5.0259 -3.3859,-8.6542 l 2.4215,15.7647 10.5935,-1.3788 z"
         style="stroke:none" />
      <path
         inkscape:connector-curvature="0"
         id="path271"
         d="m 758.3125,240.1871 c -7.0869,-0.603 -7.1558,-0.5662 -7.3256,-0.6457 l -3.5042,-6.6656 12.6154,1.758 -3.2637,-0.3576 c -5.5079,5.4241 -5.5239,5.3477 -5.4112,5.1071 l -1.5122,-5.548 c 1.7705,4.9961 1.8112,4.9461 1.8801,4.9094 0.1096,-0.0867 0.256,-0.1045 0.3974,-0.0383 0.1274,0.0597 0.2207,0.1551 0.2376,0.2665 0.009,0.0906 0.004,0.1397 -0.0759,0.3095 l 3.2617,-6.6906 2.0523,1.8372 c -5.6584,5.5893 -5.6726,5.5827 -5.8282,5.5098 l 1.2336,-6.6987 -3.0944,0.7103 6.2132,-1.2046 -0.1262,2.1272 -0.1905,-1.0778 c -3.6536,6.3225 -3.6678,6.3158 -3.628,6.2309 l 3.9978,-7.3174 0.8858,1.1825 -0.6862,-0.0137 c -3.7934,5.2854 -3.781,5.2222 -3.797,5.1457 -0.0178,-0.1464 -0.1545,-0.2966 -0.3526,-0.3893 -0.2123,-0.0994 -0.3802,-0.109 -0.5314,-0.007 -0.0898,0.0443 -0.1502,0.1367 -0.2298,0.3066 l 8.2234,-4.3678 z"
         style="stroke:none" />
      <path
         inkscape:connector-curvature="0"
         id="path273"
         d="m 797.1515,167.2765 -76.0629,31.1343 -1.5962,22.65 -27.9286,-12.1248 47.6772,66.4782 -53.7406,-49.7384 15.446,-12.4817 1.275,-3.6831 z"
         style="stroke:none" />
    </g>
    <g
       id="g275"
       style="font-size:12px;font-style:normal;font-weight:normal;fill:#363a39;fill-opacity:0.81569998;stroke:#363a39;stroke-width:1;stroke-linecap:square;stroke-linejoin:miter;stroke-miterlimit:10;stroke-opacity:0.81569998;stroke-dasharray:none;stroke-dashoffset:0;font-family:Dialog"
       transform="matrix(1.6027759,0,0,1.630214,-308.48467,-65.264471)">
      <path
         inkscape:connector-curvature="0"
         id="path277"
         d="m 652.6994,192.6001 8.0421,40.6841 26.919,9.8313 21.9098,-6.4018 5.5401,57.6401 -3.2316,28.0096 -40.7918,-10.2032 -55.5531,-54.3922 z"
         style="stroke:none" />
    </g>
    <g
       id="g279"
       style="font-size:12px;font-style:normal;font-weight:normal;fill:#1f1818;fill-opacity:0.21569998;stroke:#1f1818;stroke-width:1;stroke-linecap:square;stroke-linejoin:miter;stroke-miterlimit:10;stroke-opacity:0.21569998;stroke-dasharray:none;stroke-dashoffset:0;font-family:Dialog"
       transform="matrix(1.6027759,0,0,1.630214,-308.48467,-65.264471)">
      <path
         inkscape:connector-curvature="0"
         id="path281"
         d="m 582.7368,186.9095 21.4926,-56.3305 64.4201,-76.2286 1.0729,162.4665 -80.0463,-27.5215 z"
         style="stroke:none" />
    </g>
    <g
       id="g283"
       style="font-size:12px;font-style:normal;font-weight:normal;fill:#040503;fill-opacity:0.74900004;stroke:#040503;stroke-width:1;stroke-linecap:square;stroke-linejoin:miter;stroke-miterlimit:10;stroke-opacity:0.74900004;stroke-dasharray:none;stroke-dashoffset:0;font-family:Dialog"
       transform="matrix(1.6027759,0,0,1.630214,-308.48467,-65.264471)">
      <path
         inkscape:connector-curvature="0"
         id="path285"
         d="m 359.5444,185.4884 19.13,-18.061 3.4752,-8.7473 -0.3483,3.4292 2.943,-27.7426 -5.3576,1.2945 4.3915,43.3411 -6.0808,-40.7734 -8.3995,-65.7908 41.3539,145.5354 -30.163,-68.1193 0.1283,69.9301 -13.783,0.2967 17.4421,-139.3305 14.3025,66.7956 -19.4883,28.1332 19.5435,35.9304 -37.1481,-40.7449 32.3855,19.8374 -37.2998,-43.6908 81.2815,22.7459 -56.7109,-21.0371 22.5038,19.5286 -42.3961,13.7545 32.7298,-27.1872 -30.9933,36.1261 30.351,-20.6221 2.5,-4.1888 -13.3897,-13.7719 z"
         style="stroke:none" />
    </g>
    <g
       id="g287"
       style="font-size:12px;font-style:normal;font-weight:normal;fill:#5e7045;fill-opacity:0.47060002;stroke:#5e7045;stroke-width:1;stroke-linecap:square;stroke-linejoin:miter;stroke-miterlimit:10;stroke-opacity:0.47060002;stroke-dasharray:none;stroke-dashoffset:0;font-family:Dialog"
       transform="matrix(1.6027759,0,0,1.630214,-308.48467,-65.264471)">
      <path
         inkscape:connector-curvature="0"
         id="path289"
         d="M 284.1968,185.8649 267.3535,215.775 C 199.8433,157.5155 208.267,155.4973 215.2993,159.8111 l 28.9175,51.585 c -13.3612,-42.0422 -11.9447,-42.1998 -11.0951,-43.585 0.9151,-1.4917 0.4137,-2.8258 -1.5042,-4.0023 l 17.665,52.3776 c -41.106,-66.757 -52.1737,-64.0144 -58.2523,-54.1053 l 88.4248,23.4492 -11.2149,-13.6263 c -74.3306,57.2003 -72.9142,57.0427 -72.0645,55.6575 0.9151,-1.4917 0.4137,-2.8258 -1.5042,-4.0023 l 97.7339,-41.8319 z"
         style="stroke:none" />
    </g>
    <g
       id="g291"
       style="font-size:12px;font-style:normal;font-weight:normal;fill:#020302;fill-opacity:0.14119999;stroke:#020302;stroke-width:1;stroke-linecap:square;stroke-linejoin:miter;stroke-miterlimit:10;stroke-opacity:0.14119999;stroke-dasharray:none;stroke-dashoffset:0;font-family:Dialog"
       transform="matrix(1.6027759,0,0,1.630214,-308.48467,-65.264471)">
      <path
         inkscape:connector-curvature="0"
         id="path293"
         d="m 234.1966,191.107 -15.771,0.2089 q -1.4314,-0.3946 -3.0126,-0.2351 -1.8334,-0.8927 -0.952,-2.3491 l 13.3012,-4.468 q 4.5569,0.4556 7.8734,2.8389 2.0907,1.3281 2.6071,3.7782 0.1332,2.9982 -1.1573,4.7773 -2.0929,2.8128 -6.3942,4.1544 L 217.31,200.338 q 1.0569,0.6189 2.4878,1.9175 0.2406,0.915 0.3632,0.836 l 11.9409,-0.6771 q 1.8896,-0.431 3.2547,-1.0633 1.1719,-0.4787 1.9425,-1.2698 1.1089,-1.4219 0.866,-2.584 -0.3551,0.5413 -0.3297,0.5638 0.628,-1.7928 0.9818,-4.7578 -0.2625,-1.3789 -0.7074,-0.1165 -0.3658,1.2072 -0.8124,1.8498 -0.9353,1.4869 -1.4297,4.1462 -0.2668,2.0706 -0.3358,3.8571 -0.1581,1.1403 -0.222,1.6631 -0.0882,0.6012 0.0257,1.4085 0.1424,1.1228 0.4441,2.444 0.4788,1.4504 1.11,2.8039 1.15,1.6626 2.0194,2.952 0.4703,-0.0881 0.3749,-0.9965 z"
         style="stroke:none" />
      <path
         inkscape:connector-curvature="0"
         id="path295"
         d="m -10.0691,155.7931 76.7244,-32.6032 80.0826,146.6488 q -49.986,-104.6648 -25.3993,-120.7519 22.4377,78.397 -11.9029,80.021 90.0815,6.1568 16.6287,-6.6731 71.9943,-97.6992 -23.0915,-20.9566 L 163.5922,185.9654 11.2638,86.0009 245.9171,174.7454 q -90.0381,107.5792 -117.3573,30.659 38.4287,-55.4267 35.6179,-2.0177 -37.2214,107.9065 2.9651,-29.4343 2.8428,5.673 -5.3232,24.2906 10.3893,-25.9437 -0.8534,5.0891 -16.6136,43.8807 -1.9995,6.6964 -35.0223,6.7464 -9.9731,3.5142 -29.6998,-8.1391 12.3013,5.8921 L 20.1339,171.0487 z"
         style="stroke:none" />
    </g>
    <g
       id="g297"
       style="font-size:12px;font-style:normal;font-weight:normal;fill:#0e0d0d;fill-opacity:0.42749999;stroke:#0e0d0d;stroke-width:1;stroke-linecap:square;stroke-linejoin:miter;stroke-miterlimit:10;stroke-opacity:0.42749999;stroke-dasharray:none;stroke-dashoffset:0;font-family:Dialog"
       transform="matrix(1.6027759,0,0,1.630214,-308.48467,-65.264471)">
      <path
         inkscape:connector-curvature="0"
         id="path299"
         d="m 148.6738,221.0821 q -0.9591,9.9924 6.2921,-4.7361 l -8.5616,16.4551 q 0.2678,-12.8807 6.3129,-8.3754 -0.4097,9.888 -2.8901,-1.4277 3.2844,5.2482 5.8362,6.5586 -4.0115,0.6833 -18.4168,-5.3721 10.8133,-2.9267 1.4443,4.3498 l 11.9515,-15.222 -4.2628,35.1208 -5.251,-32.9651 q 21.1841,16.1091 10.6036,16.3719 -14.4797,-6.4365 -21.1985,-7.7238 13.9075,-2.8696 24.4359,-0.4174 -3.3078,2.9033 -3.2284,2.4917 -0.9456,-0.9506 1.8614,-2.8771 -2.8835,6.8448 -3.8066,1.9391 z"
         style="stroke:none" />
      <path
         inkscape:connector-curvature="0"
         id="path301"
         d="m 105.1458,299.1371 20.8886,24.266 -14.6074,31.5336 -21.8796,-122.4388 -70.3716,40.242 q 49.2891,-40.0611 91.8388,-11.8531 l 51.2206,53.7387 88.098,-17.0198 -171.7459,52.1808 q -82.692,-48.7498 11.5432,-66.9957 l 18.2028,-12.6482 -119.3413,40.2992 q 44.9555,-35.8639 244.57,0.9864 L 199.1966,331.3136 43.3642,301.1014 214.7556,290.3983 Q 54.8194,307.11 189.5192,284.1396 z"
         style="stroke:none" />
    </g>
    <g
       id="g303"
       style="font-size:12px;font-style:normal;font-weight:normal;fill:#2f5531;fill-opacity:0.57250001;stroke:#2f5531;stroke-width:1;stroke-linecap:square;stroke-linejoin:miter;stroke-miterlimit:10;stroke-opacity:0.57250001;stroke-dasharray:none;stroke-dashoffset:0;font-family:Dialog"
       transform="matrix(1.6027759,0,0,1.630214,-308.48467,-65.264471)">
      <path
         inkscape:connector-curvature="0"
         id="path305"
         d="m 261.2413,260.5678 -26.3914,-12.7336 26.2512,-228.555 38.8956,79.263 -27.3974,173.675 z"
         style="stroke:none" />
    </g>
    <g
       id="g307"
       style="font-size:12px;font-style:normal;font-weight:normal;fill:#7f7d7c;fill-opacity:0.47840002;stroke:#7f7d7c;stroke-width:1;stroke-linecap:square;stroke-linejoin:miter;stroke-miterlimit:10;stroke-opacity:0.47840002;stroke-dasharray:none;stroke-dashoffset:0;font-family:Dialog"
       transform="matrix(1.6027759,0,0,1.630214,-308.48467,-65.264471)">
      <path
         inkscape:connector-curvature="0"
         id="path309"
         d="m 407.9695,313.7625 -3.1566,-17.4235 4.3337,35.8376 -16.2151,30.4214 -16.3427,-0.3075 -4.757,23.772 -29.3594,5.8937 q 41.7645,-55.1587 65.5373,-68.9256 22.1612,-20.9814 67.3088,-16.3406 -7.4089,13.1388 -50.1384,33.3622 0.5861,-21.8621 12.5358,-17.282 17.0859,-5.2429 14.625,-0.5764 -64.6603,-1.1144 -83.6115,-16.5249 -3.8391,-4.9469 35.3413,12.034 20.7276,7.1892 16.6666,4.7864 43.4192,25.1432 20.0464,16.8278 -10.4181,-15.3788 -9.4811,-10.0167 l 2.1989,1.0651 z"
         style="stroke:none" />
    </g>
    <g
       id="g311"
       style="font-size:12px;font-style:normal;font-weight:normal;fill:#3b3a34;fill-opacity:0.19609997;stroke:#3b3a34;stroke-width:1;stroke-linecap:square;stroke-linejoin:miter;stroke-miterlimit:10;stroke-opacity:0.19609997;stroke-dasharray:none;stroke-dashoffset:0;font-family:Dialog"
       transform="matrix(1.6027759,0,0,1.630214,-308.48467,-65.264471)">
      <path
         inkscape:connector-curvature="0"
         id="path313"
         d="m 295.5057,312.2353 14.688,-9.828 118.6756,-16.5985 -62.1994,2.7288 -52.5232,45.0214 -46.0251,-13.5346 3.5345,-0.7571 -11.9416,-13.5849 16.873,13.8837 1.8222,-12.9026 -37.6764,-39.1567 26.3468,11.1582 35.9577,42.4655 z"
         style="stroke:none" />
    </g>
    <g
       id="g315"
       style="font-size:12px;font-style:normal;font-weight:normal;fill:#646464;fill-opacity:0.03529998;stroke:#646464;stroke-width:1;stroke-linecap:square;stroke-linejoin:miter;stroke-miterlimit:10;stroke-opacity:0.03529998;stroke-dasharray:none;stroke-dashoffset:0;font-family:Dialog"
       transform="matrix(1.6027759,0,0,1.630214,-308.48467,-65.264471)">
      <path
         inkscape:connector-curvature="0"
         id="path317"
         d="m 206.0923,460.6829 -135.445,-65.1855 105.8026,22.3169 -5.5431,4.3943 -50.3769,-86.4223 z"
         style="stroke:none" />
    </g>
    <g
       id="g319"
       style="font-size:12px;font-style:normal;font-weight:normal;fill:#797473;fill-opacity:0.25489999;stroke:#797473;stroke-width:1;stroke-linecap:square;stroke-linejoin:miter;stroke-miterlimit:10;stroke-opacity:0.25489999;stroke-dasharray:none;stroke-dashoffset:0;font-family:Dialog"
       transform="matrix(1.6027759,0,0,1.630214,-308.48467,-65.264471)">
      <path
         inkscape:connector-curvature="0"
         id="path321"
         d="m 536.4828,443.5693 c 37.5455,-153.6519 27.936,-146.2409 17.1452,-142.257 l -9.565,-12.7494 22.7291,25.9395 c 6.1965,-5.0047 6.3615,-8.7293 -1.2203,-14.2752 l 17.229,59.8631 8.6102,7.7842 c 3.4877,-4.3661 2.6278,-3.4086 -6.8263,-0.1499 l -10.1704,-4.4269 -12.8852,18.588 91.2512,-32.6431 -20.8535,4.7638 -104.6745,41.6977 c 83.6858,-37.0632 80.923,-36.6397 79.5702,-37.4956 -1.1124,-0.5421 -1.1124,-0.5421 -3.3527,-7.0418 L 554.55,293.9965 c 30.1007,2.5725 28.3818,-3.1815 26.0806,-11.7757 l 20.5243,73.9196 z"
         style="stroke:none" />
    </g>
    <g
       id="g323"
       style="font-size:12px;font-style:normal;font-weight:normal;fill:#45433d;fill-opacity:0.30199998;stroke:#45433d;stroke-width:1;stroke-linecap:square;stroke-linejoin:miter;stroke-miterlimit:10;stroke-opacity:0.30199998;stroke-dasharray:none;stroke-dashoffset:0;font-family:Dialog"
       transform="matrix(1.6027759,0,0,1.630214,-308.48467,-65.264471)">
      <path
         inkscape:connector-curvature="0"
         id="path325"
         d="m 575.8032,323.1953 q -16.1828,10.4222 -30.9687,30.1133 -0.8828,-3.7227 6.2073,-5.4493 l 18.0368,-20.1283 q -5.7928,-3.4969 -9.7174,2.0618 0.153,0.004 -6.353,0.9528 l -23.0931,30.5653 q -7.8762,10.4463 -18.3632,21.3747 -0.4244,7.8964 7.1754,3.1221 11.5772,-7.5514 26.3473,-18.9824 l 45.1933,-3.7078 q -13.4027,-23.6032 -35.547,-54.0115 5.1994,-7.588 32.661,24.2522 l 1.4028,2.864 q -0.4674,-0.3209 -8.4084,-5.9012 -7.7324,-4.577 1.7621,-1.0386 l 24.1235,23.6074 q 40.8281,46.4781 83.1343,111.1216 1.5816,33.7241 9.6965,50.828 L 491.2772,421.1677 z"
         style="stroke:none" />
    </g>
    <g
       id="g327"
       style="font-size:12px;font-style:normal;font-weight:normal;fill:#3d3835;fill-opacity:0.39220001;stroke:#3d3835;stroke-width:1;stroke-linecap:square;stroke-linejoin:miter;stroke-miterlimit:10;stroke-opacity:0.39220001;stroke-dasharray:none;stroke-dashoffset:0;font-family:Dialog"
       transform="matrix(1.6027759,0,0,1.630214,-308.48467,-65.264471)">
      <path
         inkscape:connector-curvature="0"
         id="path329"
         d="m 545.6562,148.0588 q -5.3269,-27.6153 42.6834,271.479 -56.8067,-114.3413 -98.146,-241.1895 95.9044,21.8954 4.2899,78.1324 47.0166,-61.0044 56.6417,-77.1724 l -9.734,4.187 q 6.635,2.7715 16.1879,-14.0847 28.4908,-42.5483 -10.515,-11.325 23.1064,43.4349 -78.2258,-228.7807 151.3516,301.8162 158.4397,457.0222 L 528.9457,169.8668 z"
         style="stroke:none" />
    </g>
    <g
       id="g331"
       style="font-size:12px;font-style:normal;font-weight:normal;fill:#344d47;fill-opacity:0.3137;stroke:#344d47;stroke-width:1;stroke-linecap:square;stroke-linejoin:miter;stroke-miterlimit:10;stroke-opacity:0.3137;stroke-dasharray:none;stroke-dashoffset:0;font-family:Dialog"
       transform="matrix(1.6027759,0,0,1.630214,-308.48467,-65.264471)">
      <path
         inkscape:connector-curvature="0"
         id="path333"
         d="m 443.8774,53.7623 38.3294,48.9181 -5.7699,10.1688 -22.3901,-85.3442 -17.2952,105.0647 139.4227,-92.286 -28.3515,3.6332 71.0169,105.5636 -124.531,-43.4271 48.1814,52.8961 7.2579,44.9838 z"
         style="stroke:none" />
    </g>
    <g
       id="g335"
       style="font-size:12px;font-style:normal;font-weight:normal;fill:#282828;fill-opacity:0.18430002;stroke:#282828;stroke-width:1;stroke-linecap:square;stroke-linejoin:miter;stroke-miterlimit:10;stroke-opacity:0.18430002;stroke-dasharray:none;stroke-dashoffset:0;font-family:Dialog"
       transform="matrix(1.6027759,0,0,1.630214,-308.48467,-65.264471)">
      <path
         inkscape:connector-curvature="0"
         id="path337"
         d="m 232.3681,112.0065 -27.9223,30.8186 9.344,-57.0532 18.2355,25.9824 -1.2404,-0.9126 z"
         style="stroke:none" />
    </g>
    <g
       id="g339"
       style="font-size:12px;font-style:normal;font-weight:normal;fill:#354524;fill-opacity:0.49800002;stroke:#354524;stroke-width:1;stroke-linecap:square;stroke-linejoin:miter;stroke-miterlimit:10;stroke-opacity:0.49800002;stroke-dasharray:none;stroke-dashoffset:0;font-family:Dialog"
       transform="matrix(1.6027759,0,0,1.630214,-308.48467,-65.264471)">
      <path
         inkscape:connector-curvature="0"
         id="path341"
         d="m 760.5004,141.4422 q -2.0171,-2.4134 -1.4352,-11.2315 6.2254,-8.7202 7.5649,-10.6569 -7.2127,5.4163 -4.0647,9.1391 0.462,-8.3867 -8.4146,-13.2393 0.1409,2.6333 -0.5398,7.9723 6.6043,-3.3056 14.7691,0.7501 -1.5577,-1.5626 -2.8604,-0.1658 -4.3921,1.973 -15.3453,-4.5609 6.4383,7.6433 -3.9247,2.1752 5.3353,8.7553 8.9075,-0.6484 5.2901,2.2502 -8.9063,8.5545 9.3175,-0.8591 0.1395,-14.846 11.8581,13.3034 18.9256,13.7612 7.368,-1.5245 20.4941,6.7459 10.887,13.0242 3.9094,10.4246 16.1753,5.4474 33.078,16.4376 15.3364,16.6038 19.1894,26.07 -4.2248,0.6134 -6.7611,-2.3916 0.5193,-0.2385 1.2211,0.5074 -0.863,-3.0415 0.447,-4.3217 -7.8067,-4.0709 -32.9923,-18.3458 -20.837,-25.583 -44.3772,-42.9047 -15.6124,-5.6023 -16.9059,-12.4037 4.9505,-0.2738 10.5822,5.2638 8.8266,6.4383 14.8417,13.9661 -8.6929,6.4335 0.2902,3.8776 -5.8524,-10.558 -1.5334,-5.8542 6.6201,5.0238 7.4004,14.1969 1.3042,3.6005 -5.1408,0.108 1.9794,5.715 0.4362,13.1256 -8.6787,5.9233 -3.5455,-3.8771 -8.3695,-19.1901 -8.1816,-23.228 z"
         style="stroke:none" />
    </g>
    <g
       id="g343"
       style="font-size:12px;font-style:normal;font-weight:normal;fill:#080704;fill-opacity:0.61569998;stroke:#080704;stroke-width:1;stroke-linecap:square;stroke-linejoin:miter;stroke-miterlimit:10;stroke-opacity:0.61569998;stroke-dasharray:none;stroke-dashoffset:0;font-family:Dialog"
       transform="matrix(1.6027759,0,0,1.630214,-293.27188,-80.737688)">
      <path
         inkscape:connector-curvature="0"
         id="path345"
         d="m 865.0525,332.2877 -0.9196,82.7316 -34.2805,-89.2514 17.4094,-13.803 6.3468,26.0325 z"
         style="stroke:none" />
    </g>
    <g
       id="g347"
       style="font-size:12px;font-style:normal;font-weight:normal;fill:#4d3e28;fill-opacity:0.60390003;stroke:#4d3e28;stroke-width:1;stroke-linecap:square;stroke-linejoin:miter;stroke-miterlimit:10;stroke-opacity:0.60390003;stroke-dasharray:none;stroke-dashoffset:0;font-family:Dialog"
       transform="matrix(1.6027759,0,0,1.630214,-308.48467,-65.264471)">
      <path
         inkscape:connector-curvature="0"
         id="path349"
         d="m 771.7672,301.584 44.4174,-28.235 -68.7739,119.6768 -14.337,-15.7031 83.6804,-149.1326 z"
         style="stroke:none" />
    </g>
    <g
       id="g351"
       style="font-size:12px;font-style:normal;font-weight:normal;fill:#050505;fill-opacity:0.14899998;stroke:#050505;stroke-width:1;stroke-linecap:square;stroke-linejoin:miter;stroke-miterlimit:10;stroke-opacity:0.14899998;stroke-dasharray:none;stroke-dashoffset:0;font-family:Dialog"
       transform="matrix(1.6027759,0,0,1.630214,-308.48467,-65.264471)">
      <path
         inkscape:connector-curvature="0"
         id="path353"
         d="m 994.7833,236.7304 -85.0857,55.4377 -113.0352,-123.4405 75.9334,-67.0152 81.3155,86.1479 z"
         style="stroke:none" />
    </g>
    <g
       id="g355"
       style="font-size:12px;font-style:normal;font-weight:normal;fill:#272e27;fill-opacity:0.39220001;stroke:#272e27;stroke-width:1;stroke-linecap:square;stroke-linejoin:miter;stroke-miterlimit:10;stroke-opacity:0.39220001;stroke-dasharray:none;stroke-dashoffset:0;font-family:Dialog"
       transform="matrix(1.6027759,0,0,1.630214,-308.48467,-65.264471)">
      <path
         inkscape:connector-curvature="0"
         id="path357"
         d="m 750.5944,300.237 48.4517,17.8389 C 768.1782,109.0368 765.0507,117.0122 773.9703,109.0571 c -4.0703,0.9625 -6.1544,7.9455 0.7792,9.7438 l -3.725,242.0425 -77.4046,-141.3045 53.1278,-25.8237 c 39.0366,-38.0514 38.2811,-36.6401 38.8715,-35.2612 0.6397,1.4939 2.1823,1.9212 4.1358,1.0847 l -137.7761,58.9911 c 176.0411,-75.3749 176.7966,-76.7861 176.2062,-78.1651 -0.6396,-1.4938 -2.1823,-1.9211 -4.1358,-1.0847 l -67.4496,34.4844 29.9126,-13.308 c 13.7657,-54.7825 16.6559,-59.1475 21.8269,-61.3615 2.528,-1.0824 5.3674,-0.8024 9.2568,0.6597 1.1488,0.46 1.4278,0.4765 2.2322,0.1321 1.3789,-0.5904 1.9703,-2.0674 1.3799,-3.4464 -0.4428,-1.0341 -1.5259,-1.6582 -4.1682,-2.4305 -4.0701,-1.2489 -7.0409,-1.2006 -10.3733,0.2262 -5.8603,2.5092 -10.1133,8.1375 -16.6671,22.3656 l -21.9719,79.2921 z"
         style="stroke:none" />
    </g>
  </g>
  <g
     inkscape:groupmode="layer"
     id="layer3"
     inkscape:label="4"
     style="display:inline">
    <text
       xml:space="preserve"
       style="font-size:32.00133133px;font-style:normal;font-weight:normal;line-height:125%;letter-spacing:0px;word-spacing:0px;opacity:0.87439617;fill:#05c0c0;fill-opacity:1;stroke:none;font-family:MineCrafter 3;-inkscape-font-specification:MineCrafter 3"
       x="636.75354"
       y="378.80212"
       id="text3190"
       sodipodi:linespacing="125%"
       transform="scale(0.9634303,1.0379578)"><tspan
         sodipodi:role="line"
         id="tspan3192"
         x="636.75354"
         y="378.80212"
         style="font-size:35.39523315px;fill:#05c0c0;fill-opacity:1">HACKING THURSDAY</tspan></text>
    <text
       sodipodi:linespacing="125%"
       id="text5408"
       y="441.56683"
       x="855.7616"
       style="font-size:32.00133133px;font-style:normal;font-weight:normal;line-height:125%;letter-spacing:0px;word-spacing:0px;opacity:0.87439617;fill:#05c0c0;fill-opacity:1;stroke:none;font-family:MineCrafter 3;-inkscape-font-specification:MineCrafter 3"
       xml:space="preserve"
       transform="scale(0.9634303,1.0379578)"><tspan
         style="font-size:35.39523315px;fill:#05c0c0;fill-opacity:1"
         y="441.56683"
         x="855.7616"
         id="tspan5410"
         sodipodi:role="line">4, 24  19:00</tspan></text>
  </g>
</svg>
